<svg width="2338" height="1496" viewBox="0 0 2338 1496" fill="none" xmlns="http://www.w3.org/2000/svg">
<g clip-path="url(#clip0_209_5519)">
<path d="M2494.98 702.221V1190.41H1496.2V518.46C1496.2 506.185 1501.08 494.412 1509.77 485.732C1518.45 477.051 1530.23 472.174 1542.51 472.172H1748.37V214H2164.96V702.193L2494.98 702.221Z" fill="#CEE4ED"/>
<path d="M1608 637.177H1589.58V655.585H1608V637.177Z" fill="white"/>
<path d="M1635.2 637.177H1616.78V655.585H1635.2V637.177Z" fill="white"/>
<path d="M1608 663.36H1589.58V681.768H1608V663.36Z" fill="white"/>
<path d="M1635.2 663.36H1616.78V681.768H1635.2V663.36Z" fill="white"/>
<path d="M1707.36 637.177H1688.94V655.585H1707.36V637.177Z" fill="#FFC200"/>
<path d="M1734.57 637.177H1716.15V655.585H1734.57V637.177Z" fill="#FFC200"/>
<path d="M1707.36 663.36H1688.94V681.768H1707.36V663.36Z" fill="#FFC200"/>
<path d="M1734.57 663.36H1716.15V681.768H1734.57V663.36Z" fill="#FFC200"/>
<path d="M1707.36 728.904H1688.94V747.312H1707.36V728.904Z" fill="white"/>
<path d="M1734.57 728.904H1716.15V747.312H1734.57V728.904Z" fill="white"/>
<path d="M1707.36 755.088H1688.94V773.496H1707.36V755.088Z" fill="white"/>
<path d="M1734.57 755.088H1716.15V773.496H1734.57V755.088Z" fill="white"/>
<path d="M1608 536.346H1589.58V554.755H1608V536.346Z" fill="white"/>
<path d="M1635.2 536.346H1616.78V554.755H1635.2V536.346Z" fill="white"/>
<path d="M1608 562.53H1589.58V580.938H1608V562.53Z" fill="white"/>
<path d="M1635.2 562.53H1616.78V580.938H1635.2V562.53Z" fill="white"/>
<path d="M2286.39 214H2164.96V702.221H2286.39V214Z" fill="#98C8DB"/>
<path d="M2164.96 678.715H2494.98" stroke="#CEE4ED" stroke-width="6" stroke-miterlimit="10"/>
<path d="M2322.21 802.954C2324.81 802.954 2326.92 800.846 2326.92 798.246C2326.92 795.646 2324.81 793.538 2322.21 793.538C2319.6 793.538 2317.5 795.646 2317.5 798.246C2317.5 800.846 2319.6 802.954 2322.21 802.954Z" fill="white"/>
<path d="M2291.06 802.954C2293.66 802.954 2295.77 800.846 2295.77 798.246C2295.77 795.646 2293.66 793.538 2291.06 793.538C2288.46 793.538 2286.35 795.646 2286.35 798.246C2286.35 800.846 2288.46 802.954 2291.06 802.954Z" fill="white"/>
<path d="M2322.21 775.353C2324.81 775.353 2326.92 773.245 2326.92 770.645C2326.92 768.044 2324.81 765.937 2322.21 765.937C2319.6 765.937 2317.5 768.044 2317.5 770.645C2317.5 773.245 2319.6 775.353 2322.21 775.353Z" fill="white"/>
<path d="M2291.06 775.353C2293.66 775.353 2295.77 773.245 2295.77 770.645C2295.77 768.044 2293.66 765.937 2291.06 765.937C2288.46 765.937 2286.35 768.044 2286.35 770.645C2286.35 773.245 2288.46 775.353 2291.06 775.353Z" fill="white"/>
<path d="M2322.21 830.556C2324.81 830.556 2326.92 828.448 2326.92 825.848C2326.92 823.248 2324.81 821.14 2322.21 821.14C2319.6 821.14 2317.5 823.248 2317.5 825.848C2317.5 828.448 2319.6 830.556 2322.21 830.556Z" fill="white"/>
<path d="M2291.06 830.556C2293.66 830.556 2295.77 828.448 2295.77 825.848C2295.77 823.248 2293.66 821.14 2291.06 821.14C2288.46 821.14 2286.35 823.248 2286.35 825.848C2286.35 828.448 2288.46 830.556 2291.06 830.556Z" fill="white"/>
<path d="M2291.06 858.164C2293.66 858.164 2295.77 856.057 2295.77 853.456C2295.77 850.856 2293.66 848.748 2291.06 848.748C2288.46 848.748 2286.35 850.856 2286.35 853.456C2286.35 856.057 2288.46 858.164 2291.06 858.164Z" fill="white"/>
<path d="M2322.21 858.164C2324.81 858.164 2326.92 856.057 2326.92 853.456C2326.92 850.856 2324.81 848.748 2322.21 848.748C2319.6 848.748 2317.5 850.856 2317.5 853.456C2317.5 856.057 2319.6 858.164 2322.21 858.164Z" fill="white"/>
<path d="M2322.21 886.218C2324.81 886.218 2326.92 884.11 2326.92 881.51C2326.92 878.91 2324.81 876.802 2322.21 876.802C2319.6 876.802 2317.5 878.91 2317.5 881.51C2317.5 884.11 2319.6 886.218 2322.21 886.218Z" fill="white"/>
<path d="M2291.06 886.218C2293.66 886.218 2295.77 884.11 2295.77 881.51C2295.77 878.91 2293.66 876.802 2291.06 876.802C2288.46 876.802 2286.35 878.91 2286.35 881.51C2286.35 884.11 2288.46 886.218 2291.06 886.218Z" fill="white"/>
<path d="M2322.21 913.827C2324.81 913.827 2326.92 911.719 2326.92 909.119C2326.92 906.519 2324.81 904.411 2322.21 904.411C2319.6 904.411 2317.5 906.519 2317.5 909.119C2317.5 911.719 2319.6 913.827 2322.21 913.827Z" fill="white"/>
<path d="M2291.06 913.827C2293.66 913.827 2295.77 911.719 2295.77 909.119C2295.77 906.519 2293.66 904.411 2291.06 904.411C2288.46 904.411 2286.35 906.519 2286.35 909.119C2286.35 911.719 2288.46 913.827 2291.06 913.827Z" fill="white"/>
<path d="M2291.06 941.428C2293.66 941.428 2295.77 939.32 2295.77 936.72C2295.77 934.12 2293.66 932.012 2291.06 932.012C2288.46 932.012 2286.35 934.12 2286.35 936.72C2286.35 939.32 2288.46 941.428 2291.06 941.428Z" fill="white"/>
<path d="M2322.21 941.428C2324.81 941.428 2326.92 939.32 2326.92 936.72C2326.92 934.12 2324.81 932.012 2322.21 932.012C2319.6 932.012 2317.5 934.12 2317.5 936.72C2317.5 939.32 2319.6 941.428 2322.21 941.428Z" fill="white"/>
<path d="M2197.86 802.954C2200.46 802.954 2202.57 800.846 2202.57 798.246C2202.57 795.646 2200.46 793.538 2197.86 793.538C2195.25 793.538 2193.14 795.646 2193.14 798.246C2193.14 800.846 2195.25 802.954 2197.86 802.954Z" fill="white"/>
<path d="M2229 802.954C2231.6 802.954 2233.71 800.846 2233.71 798.246C2233.71 795.646 2231.6 793.538 2229 793.538C2226.4 793.538 2224.29 795.646 2224.29 798.246C2224.29 800.846 2226.4 802.954 2229 802.954Z" fill="white"/>
<path d="M2260.15 802.954C2262.75 802.954 2264.86 800.846 2264.86 798.246C2264.86 795.646 2262.75 793.538 2260.15 793.538C2257.55 793.538 2255.44 795.646 2255.44 798.246C2255.44 800.846 2257.55 802.954 2260.15 802.954Z" fill="white"/>
<path d="M2197.86 775.353C2200.46 775.353 2202.57 773.245 2202.57 770.645C2202.57 768.044 2200.46 765.937 2197.86 765.937C2195.25 765.937 2193.14 768.044 2193.14 770.645C2193.14 773.245 2195.25 775.353 2197.86 775.353Z" fill="white"/>
<path d="M2229 775.353C2231.6 775.353 2233.71 773.245 2233.71 770.645C2233.71 768.044 2231.6 765.937 2229 765.937C2226.4 765.937 2224.29 768.044 2224.29 770.645C2224.29 773.245 2226.4 775.353 2229 775.353Z" fill="white"/>
<path d="M2260.15 775.353C2262.75 775.353 2264.86 773.245 2264.86 770.645C2264.86 768.044 2262.75 765.937 2260.15 765.937C2257.55 765.937 2255.44 768.044 2255.44 770.645C2255.44 773.245 2257.55 775.353 2260.15 775.353Z" fill="white"/>
<path d="M2197.86 830.556C2200.46 830.556 2202.57 828.448 2202.57 825.848C2202.57 823.248 2200.46 821.14 2197.86 821.14C2195.25 821.14 2193.14 823.248 2193.14 825.848C2193.14 828.448 2195.25 830.556 2197.86 830.556Z" fill="white"/>
<path d="M2229 830.556C2231.6 830.556 2233.71 828.448 2233.71 825.848C2233.71 823.248 2231.6 821.14 2229 821.14C2226.4 821.14 2224.29 823.248 2224.29 825.848C2224.29 828.448 2226.4 830.556 2229 830.556Z" fill="white"/>
<path d="M2260.15 830.556C2262.75 830.556 2264.86 828.448 2264.86 825.848C2264.86 823.248 2262.75 821.14 2260.15 821.14C2257.55 821.14 2255.44 823.248 2255.44 825.848C2255.44 828.448 2257.55 830.556 2260.15 830.556Z" fill="white"/>
<path d="M2197.86 858.164C2200.46 858.164 2202.57 856.057 2202.57 853.456C2202.57 850.856 2200.46 848.748 2197.86 848.748C2195.25 848.748 2193.14 850.856 2193.14 853.456C2193.14 856.057 2195.25 858.164 2197.86 858.164Z" fill="white"/>
<path d="M2229 858.164C2231.6 858.164 2233.71 856.057 2233.71 853.456C2233.71 850.856 2231.6 848.748 2229 848.748C2226.4 848.748 2224.29 850.856 2224.29 853.456C2224.29 856.057 2226.4 858.164 2229 858.164Z" fill="white"/>
<path d="M2260.15 858.164C2262.75 858.164 2264.86 856.057 2264.86 853.456C2264.86 850.856 2262.75 848.748 2260.15 848.748C2257.55 848.748 2255.44 850.856 2255.44 853.456C2255.44 856.057 2257.55 858.164 2260.15 858.164Z" fill="white"/>
<path d="M2197.86 886.218C2200.46 886.218 2202.57 884.11 2202.57 881.51C2202.57 878.91 2200.46 876.802 2197.86 876.802C2195.25 876.802 2193.14 878.91 2193.14 881.51C2193.14 884.11 2195.25 886.218 2197.86 886.218Z" fill="white"/>
<path d="M2229 886.218C2231.6 886.218 2233.71 884.11 2233.71 881.51C2233.71 878.91 2231.6 876.802 2229 876.802C2226.4 876.802 2224.29 878.91 2224.29 881.51C2224.29 884.11 2226.4 886.218 2229 886.218Z" fill="white"/>
<path d="M2260.15 886.218C2262.75 886.218 2264.86 884.11 2264.86 881.51C2264.86 878.91 2262.75 876.802 2260.15 876.802C2257.55 876.802 2255.44 878.91 2255.44 881.51C2255.44 884.11 2257.55 886.218 2260.15 886.218Z" fill="white"/>
<path d="M2197.86 913.827C2200.46 913.827 2202.57 911.719 2202.57 909.119C2202.57 906.519 2200.46 904.411 2197.86 904.411C2195.25 904.411 2193.14 906.519 2193.14 909.119C2193.14 911.719 2195.25 913.827 2197.86 913.827Z" fill="white"/>
<path d="M2229 913.827C2231.6 913.827 2233.71 911.719 2233.71 909.119C2233.71 906.519 2231.6 904.411 2229 904.411C2226.4 904.411 2224.29 906.519 2224.29 909.119C2224.29 911.719 2226.4 913.827 2229 913.827Z" fill="white"/>
<path d="M2260.15 913.827C2262.75 913.827 2264.86 911.719 2264.86 909.119C2264.86 906.519 2262.75 904.411 2260.15 904.411C2257.55 904.411 2255.44 906.519 2255.44 909.119C2255.44 911.719 2257.55 913.827 2260.15 913.827Z" fill="white"/>
<path d="M2197.86 941.428C2200.46 941.428 2202.57 939.32 2202.57 936.72C2202.57 934.12 2200.46 932.012 2197.86 932.012C2195.25 932.012 2193.14 934.12 2193.14 936.72C2193.14 939.32 2195.25 941.428 2197.86 941.428Z" fill="white"/>
<path d="M2229 941.428C2231.6 941.428 2233.71 939.32 2233.71 936.72C2233.71 934.12 2231.6 932.012 2229 932.012C2226.4 932.012 2224.29 934.12 2224.29 936.72C2224.29 939.32 2226.4 941.428 2229 941.428Z" fill="white"/>
<path d="M2260.15 941.428C2262.75 941.428 2264.86 939.32 2264.86 936.72C2264.86 934.12 2262.75 932.012 2260.15 932.012C2257.55 932.012 2255.44 934.12 2255.44 936.72C2255.44 939.32 2257.55 941.428 2260.15 941.428Z" fill="white"/>
<path d="M281.695 694.62L0.994141 846.245" stroke="#CEE4ED" stroke-width="6" stroke-miterlimit="10"/>
<path d="M883.48 381.46V1246H0.994141V869.772L281.695 718.167V558.663C281.695 553.507 282.711 548.401 284.685 543.637C286.66 538.874 289.553 534.545 293.201 530.899C296.849 527.253 301.18 524.361 305.946 522.388C310.712 520.415 315.82 519.399 320.979 519.399H639.461V381.46H883.48Z" fill="#CEE4ED"/>
<path d="M714.759 466.177C717.361 466.177 719.47 464.069 719.47 461.469C719.47 458.869 717.361 456.761 714.759 456.761C712.158 456.761 710.049 458.869 710.049 461.469C710.049 464.069 712.158 466.177 714.759 466.177Z" fill="white"/>
<path d="M683.617 466.177C686.218 466.177 688.327 464.069 688.327 461.469C688.327 458.869 686.218 456.761 683.617 456.761C681.015 456.761 678.906 458.869 678.906 461.469C678.906 464.069 681.015 466.177 683.617 466.177Z" fill="white"/>
<path d="M745.903 466.177C748.504 466.177 750.613 464.069 750.613 461.469C750.613 458.869 748.504 456.761 745.903 456.761C743.301 456.761 741.192 458.869 741.192 461.469C741.192 464.069 743.301 466.177 745.903 466.177Z" fill="white"/>
<path d="M777.045 466.177C779.647 466.177 781.756 464.069 781.756 461.469C781.756 458.869 779.647 456.761 777.045 456.761C774.444 456.761 772.335 458.869 772.335 461.469C772.335 464.069 774.444 466.177 777.045 466.177Z" fill="white"/>
<path d="M808.19 466.177C810.791 466.177 812.9 464.069 812.9 461.469C812.9 458.869 810.791 456.761 808.19 456.761C805.588 456.761 803.479 458.869 803.479 461.469C803.479 464.069 805.588 466.177 808.19 466.177Z" fill="white"/>
<path d="M839.333 466.177C841.935 466.177 844.044 464.069 844.044 461.469C844.044 458.869 841.935 456.761 839.333 456.761C836.732 456.761 834.623 458.869 834.623 461.469C834.623 464.069 836.732 466.177 839.333 466.177Z" fill="white"/>
<path d="M714.759 438.576C717.361 438.576 719.47 436.468 719.47 433.868C719.47 431.268 717.361 429.16 714.759 429.16C712.158 429.16 710.049 431.268 710.049 433.868C710.049 436.468 712.158 438.576 714.759 438.576Z" fill="white"/>
<path d="M683.617 438.576C686.218 438.576 688.327 436.468 688.327 433.868C688.327 431.268 686.218 429.16 683.617 429.16C681.015 429.16 678.906 431.268 678.906 433.868C678.906 436.468 681.015 438.576 683.617 438.576Z" fill="white"/>
<path d="M745.903 438.576C748.504 438.576 750.613 436.468 750.613 433.868C750.613 431.268 748.504 429.16 745.903 429.16C743.301 429.16 741.192 431.268 741.192 433.868C741.192 436.468 743.301 438.576 745.903 438.576Z" fill="white"/>
<path d="M777.045 438.576C779.647 438.576 781.756 436.468 781.756 433.868C781.756 431.268 779.647 429.16 777.045 429.16C774.444 429.16 772.335 431.268 772.335 433.868C772.335 436.468 774.444 438.576 777.045 438.576Z" fill="white"/>
<path d="M808.19 438.576C810.791 438.576 812.9 436.468 812.9 433.868C812.9 431.268 810.791 429.16 808.19 429.16C805.588 429.16 803.479 431.268 803.479 433.868C803.479 436.468 805.588 438.576 808.19 438.576Z" fill="white"/>
<path d="M839.333 438.576C841.935 438.576 844.044 436.468 844.044 433.868C844.044 431.268 841.935 429.16 839.333 429.16C836.732 429.16 834.623 431.268 834.623 433.868C834.623 436.468 836.732 438.576 839.333 438.576Z" fill="white"/>
<path d="M714.759 493.786C717.361 493.786 719.47 491.678 719.47 489.078C719.47 486.478 717.361 484.37 714.759 484.37C712.158 484.37 710.049 486.478 710.049 489.078C710.049 491.678 712.158 493.786 714.759 493.786Z" fill="white"/>
<path d="M683.617 493.786C686.218 493.786 688.327 491.678 688.327 489.078C688.327 486.478 686.218 484.37 683.617 484.37C681.015 484.37 678.906 486.478 678.906 489.078C678.906 491.678 681.015 493.786 683.617 493.786Z" fill="white"/>
<path d="M745.903 493.786C748.504 493.786 750.613 491.678 750.613 489.078C750.613 486.478 748.504 484.37 745.903 484.37C743.301 484.37 741.192 486.478 741.192 489.078C741.192 491.678 743.301 493.786 745.903 493.786Z" fill="white"/>
<path d="M777.045 493.786C779.647 493.786 781.756 491.678 781.756 489.078C781.756 486.478 779.647 484.37 777.045 484.37C774.444 484.37 772.335 486.478 772.335 489.078C772.335 491.678 774.444 493.786 777.045 493.786Z" fill="white"/>
<path d="M808.19 493.786C810.791 493.786 812.9 491.678 812.9 489.078C812.9 486.478 810.791 484.37 808.19 484.37C805.588 484.37 803.479 486.478 803.479 489.078C803.479 491.678 805.588 493.786 808.19 493.786Z" fill="white"/>
<path d="M839.333 493.786C841.935 493.786 844.044 491.678 844.044 489.078C844.044 486.478 841.935 484.37 839.333 484.37C836.732 484.37 834.623 486.478 834.623 489.078C834.623 491.678 836.732 493.786 839.333 493.786Z" fill="white"/>
<path d="M683.617 521.388C686.218 521.388 688.327 519.28 688.327 516.68C688.327 514.08 686.218 511.972 683.617 511.972C681.015 511.972 678.906 514.08 678.906 516.68C678.906 519.28 681.015 521.388 683.617 521.388Z" fill="white"/>
<path d="M714.759 521.388C717.361 521.388 719.47 519.28 719.47 516.68C719.47 514.08 717.361 511.972 714.759 511.972C712.158 511.972 710.049 514.08 710.049 516.68C710.049 519.28 712.158 521.388 714.759 521.388Z" fill="white"/>
<path d="M745.903 521.388C748.504 521.388 750.613 519.28 750.613 516.68C750.613 514.08 748.504 511.972 745.903 511.972C743.301 511.972 741.192 514.08 741.192 516.68C741.192 519.28 743.301 521.388 745.903 521.388Z" fill="white"/>
<path d="M777.045 521.388C779.647 521.388 781.756 519.28 781.756 516.68C781.756 514.08 779.647 511.972 777.045 511.972C774.444 511.972 772.335 514.08 772.335 516.68C772.335 519.28 774.444 521.388 777.045 521.388Z" fill="white"/>
<path d="M808.19 521.388C810.791 521.388 812.9 519.28 812.9 516.68C812.9 514.08 810.791 511.972 808.19 511.972C805.588 511.972 803.479 514.08 803.479 516.68C803.479 519.28 805.588 521.388 808.19 521.388Z" fill="white"/>
<path d="M839.333 521.388C841.935 521.388 844.044 519.28 844.044 516.68C844.044 514.08 841.935 511.972 839.333 511.972C836.732 511.972 834.623 514.08 834.623 516.68C834.623 519.28 836.732 521.388 839.333 521.388Z" fill="white"/>
<path d="M637.026 366.446H883.481" stroke="#CEE4ED" stroke-width="6" stroke-miterlimit="10"/>
<path d="M130.647 867.254H112.229V885.662H130.647V867.254Z" fill="white"/>
<path d="M157.852 867.254H139.435V885.662H157.852V867.254Z" fill="white"/>
<path d="M130.647 893.437H112.229V911.845H130.647V893.437Z" fill="white"/>
<path d="M157.852 893.437H139.435V911.845H157.852V893.437Z" fill="white"/>
<path d="M130.647 962.396H112.229V980.804H130.647V962.396Z" fill="white"/>
<path d="M157.852 962.396H139.435V980.804H157.852V962.396Z" fill="white"/>
<path d="M130.647 988.579H112.229V1006.99H130.647V988.579Z" fill="white"/>
<path d="M157.852 988.579H139.435V1006.99H157.852V988.579Z" fill="white"/>
<path d="M269.449 867.254H251.031V885.662H269.449V867.254Z" fill="#FFC200"/>
<path d="M296.655 867.254H278.237V885.662H296.655V867.254Z" fill="#FFC200"/>
<path d="M269.449 893.437H251.031V911.845H269.449V893.437Z" fill="#FFC200"/>
<path d="M296.655 893.437H278.237V911.845H296.655V893.437Z" fill="#FFC200"/>
<path d="M1624.31 1252.25H1705.63L1717.75 280.888H1636.43L1624.31 1252.25Z" fill="white" stroke="#495057" stroke-width="5" stroke-miterlimit="10"/>
<path d="M1636.43 280.888V307.746L1717.75 289.105V280.888H1636.43Z" fill="#495057"/>
<path d="M1477.65 125.848L1498.68 178.783L1518.06 227.571L1532.79 264.663C1534.69 269.449 1537.99 273.554 1542.25 276.447C1546.51 279.34 1551.54 280.887 1556.69 280.888H1801.4C1806.55 280.887 1811.58 279.341 1815.84 276.448C1820.11 273.555 1823.4 269.45 1825.3 264.663L1840.04 227.571L1859.44 178.783L1880.44 125.848H1477.65Z" fill="white" stroke="#495057" stroke-width="5" stroke-miterlimit="10"/>
<path d="M1919.12 125.842H1444.31" stroke="#495057" stroke-width="5" stroke-miterlimit="10" stroke-linecap="round"/>
<path d="M1880.44 125.842H1477.65L1679.04 83.9106L1880.44 125.842Z" stroke="#495057" stroke-width="5" stroke-miterlimit="10" stroke-linecap="round"/>
<path d="M1679.04 83.9106V1.4917" stroke="#495057" stroke-width="5" stroke-miterlimit="10" stroke-linecap="round"/>
<path d="M1636.43 323.482V343.782L1717.75 327.175V323.482H1636.43Z" fill="#495057"/>
<path d="M1596.27 308.385H1757.51V323.625H1596.27V308.385Z" fill="white" stroke="#495057" stroke-width="5" stroke-miterlimit="10"/>
<path d="M1503.16 186.063L1522.54 234.851H1827.72L1847.09 186.063H1503.16Z" fill="#BDDCE8"/>
<path d="M1498.68 178.783L1518.06 227.571H1840.04L1859.42 178.783H1498.68Z" stroke="#495057" stroke-width="5" stroke-miterlimit="10" stroke-linecap="round"/>
<path d="M1798.42 227.571L1817.8 178.783" stroke="#495057" stroke-width="5" stroke-miterlimit="10" stroke-linecap="round"/>
<path d="M1756.8 227.571L1776.18 178.783" stroke="#495057" stroke-width="5" stroke-miterlimit="10" stroke-linecap="round"/>
<path d="M1715.19 227.571L1734.56 178.783" stroke="#495057" stroke-width="5" stroke-miterlimit="10" stroke-linecap="round"/>
<path d="M1561 227.571L1541.62 178.783" stroke="#495057" stroke-width="5" stroke-miterlimit="10" stroke-linecap="round"/>
<path d="M1602.62 227.571L1583.24 178.783" stroke="#495057" stroke-width="5" stroke-miterlimit="10" stroke-linecap="round"/>
<path d="M1644.24 227.571L1624.86 178.783" stroke="#495057" stroke-width="5" stroke-miterlimit="10" stroke-linecap="round"/>
<path d="M1679.04 227.571V178.783" stroke="#495057" stroke-width="5" stroke-miterlimit="10" stroke-linecap="round"/>
<path d="M86.8282 893.051H1373.56C1286.39 653.85 1031.3 480.676 730.192 480.676C429.082 480.676 173.995 653.85 86.8282 893.051Z" stroke="#495057" stroke-width="5" stroke-miterlimit="10" stroke-linecap="round"/>
<path d="M126.002 894.811H1316.43C1241.9 690.279 978.696 536.499 721.211 536.499C463.726 536.499 200.548 690.279 126.002 894.811Z" fill="#BDDCE8"/>
<path d="M116.795 893.051H1343.59C1266.79 682.271 995.523 523.789 730.18 523.789C464.836 523.789 193.603 682.271 116.795 893.051Z" stroke="#495057" stroke-width="5" stroke-miterlimit="10" stroke-linecap="round"/>
<path d="M652.507 463.216V483.617" stroke="#495057" stroke-width="5" stroke-miterlimit="10" stroke-linecap="round"/>
<path d="M808.617 483.617V463.216" stroke="#495057" stroke-width="5" stroke-miterlimit="10" stroke-linecap="round"/>
<path d="M626.621 440.122H824.149V467.637H626.621V440.122Z" fill="#FED4C7"/>
<path d="M631.431 435.307H828.959V462.822H631.431V435.307Z" stroke="#495057" stroke-width="5" stroke-miterlimit="10" stroke-linecap="round"/>
<path d="M721.229 534.147V889.81" stroke="white" stroke-width="6" stroke-miterlimit="10" stroke-linecap="round"/>
<path d="M613.464 542.149V889.81" stroke="white" stroke-width="6" stroke-miterlimit="10" stroke-linecap="round"/>
<path d="M505.693 567.074V889.81" stroke="white" stroke-width="6" stroke-miterlimit="10" stroke-linecap="round"/>
<path d="M397.922 611.363V889.81" stroke="white" stroke-width="6" stroke-miterlimit="10" stroke-linecap="round"/>
<path d="M266.914 695.232V889.81" stroke="white" stroke-width="6" stroke-miterlimit="10" stroke-linecap="round"/>
<path d="M828.971 543.027V889.488" stroke="white" stroke-width="6" stroke-miterlimit="10" stroke-linecap="round"/>
<path d="M936.742 567.958V889.488" stroke="white" stroke-width="6" stroke-miterlimit="10" stroke-linecap="round"/>
<path d="M1044.51 612.246V889.488" stroke="white" stroke-width="6" stroke-miterlimit="10" stroke-linecap="round"/>
<path d="M1152.28 678.506V889.488" stroke="white" stroke-width="6" stroke-miterlimit="10" stroke-linecap="round"/>
<path d="M420.892 240.734C413.48 240.734 407.472 234.726 407.472 227.314C407.472 219.902 413.48 213.894 420.892 213.894C428.303 213.894 434.312 219.902 434.312 227.314C434.312 234.726 428.303 240.734 420.892 240.734Z" fill="#FED4C7"/>
<path d="M355.2 240.734C347.789 240.734 341.78 234.726 341.78 227.314C341.78 219.902 347.789 213.894 355.2 213.894C362.612 213.894 368.62 219.902 368.62 227.314C368.62 234.726 362.612 240.734 355.2 240.734Z" fill="#FED4C7"/>
<path d="M289.509 240.734C282.097 240.734 276.089 234.726 276.089 227.314C276.089 219.902 282.097 213.894 289.509 213.894C296.92 213.894 302.929 219.902 302.929 227.314C302.929 234.726 296.92 240.734 289.509 240.734Z" fill="#FED4C7"/>
<path d="M223.816 240.734C216.405 240.734 210.396 234.726 210.396 227.314C210.396 219.902 216.405 213.894 223.816 213.894C231.228 213.894 237.236 219.902 237.236 227.314C237.236 234.726 231.228 240.734 223.816 240.734Z" fill="#FED4C7"/>
<path d="M453.478 206.483H200.838" stroke="#495057" stroke-width="5" stroke-miterlimit="10" stroke-linecap="round"/>
<path d="M453.478 247.352H200.838" stroke="#495057" stroke-width="5" stroke-miterlimit="10" stroke-linecap="round"/>
<path d="M327.154 316.834V893.116" stroke="#495057" stroke-width="5" stroke-miterlimit="10" stroke-linecap="round"/>
<path d="M256.659 247.454L327.154 316.834L397.655 247.454" stroke="#495057" stroke-width="5" stroke-miterlimit="10" stroke-linecap="round"/>
<path d="M427.05 240.174C419.638 240.174 413.63 234.165 413.63 226.753C413.63 219.342 419.638 213.333 427.05 213.333C434.461 213.333 440.47 219.342 440.47 226.753C440.47 234.165 434.461 240.174 427.05 240.174Z" stroke="#495057" stroke-width="5" stroke-miterlimit="10" stroke-linecap="round"/>
<path d="M361.357 240.174C353.946 240.174 347.937 234.165 347.937 226.753C347.937 219.342 353.946 213.333 361.357 213.333C368.769 213.333 374.777 219.342 374.777 226.753C374.777 234.165 368.769 240.174 361.357 240.174Z" stroke="#495057" stroke-width="5" stroke-miterlimit="10" stroke-linecap="round"/>
<path d="M295.666 240.174C288.254 240.174 282.246 234.165 282.246 226.753C282.246 219.342 288.254 213.333 295.666 213.333C303.078 213.333 309.086 219.342 309.086 226.753C309.086 234.165 303.078 240.174 295.666 240.174Z" stroke="#495057" stroke-width="5" stroke-miterlimit="10" stroke-linecap="round"/>
<path d="M229.975 240.174C222.563 240.174 216.555 234.165 216.555 226.753C216.555 219.342 222.563 213.333 229.975 213.333C237.386 213.333 243.395 219.342 243.395 226.753C243.395 234.165 237.386 240.174 229.975 240.174Z" stroke="#495057" stroke-width="5" stroke-miterlimit="10" stroke-linecap="round"/>
<path d="M1100.95 170.619C1115.9 166.612 1131.8 168.131 1145.72 174.897L1174.07 188.651L1473.12 80.989C1474.27 80.5767 1475.23 79.7419 1475.79 78.6535C1476.37 77.5742 1476.51 76.3118 1476.18 75.1305C1476.02 74.51 1475.73 73.928 1475.34 73.418C1474.95 72.9081 1474.47 72.4803 1473.91 72.1594C1473.36 71.8384 1472.74 71.6306 1472.1 71.548C1471.47 71.4653 1470.82 71.5094 1470.2 71.6777L1100.95 170.619Z" fill="white" stroke="#495057" stroke-width="5" stroke-miterlimit="10"/>
<path d="M604.207 375.023L480.823 278.461L491.439 275.616C496.059 274.377 500.943 274.533 505.474 276.065L562.791 295.46C583.523 302.521 605.884 303.272 627.043 297.619L1100.95 170.636C1115.9 166.633 1131.79 168.146 1145.72 174.898L1174.08 188.684C1201.73 202.094 1197.87 242.654 1168.18 250.612L660.76 386.573C651.083 389.161 640.938 389.464 631.123 387.46C621.309 385.455 612.095 381.198 604.207 375.023Z" fill="white" stroke="#495057" stroke-width="5" stroke-miterlimit="10"/>
<path d="M843.68 270.942C860.171 246.285 885.06 228.461 913.714 220.788L292.016 387.372C290.573 387.758 289.343 388.702 288.596 389.996C287.849 391.289 287.647 392.826 288.034 394.269C288.391 395.626 289.246 396.799 290.427 397.555C291.608 398.312 293.031 398.597 294.413 398.355L821.805 303.683L843.68 270.942Z" fill="white" stroke="#495057" stroke-width="5" stroke-miterlimit="10"/>
<path d="M1282.82 169.356C1288.46 190.376 1305.47 197.126 1328.1 191.063C1337.96 188.421 1345.34 184.169 1350.26 178.783C1348.28 180.616 1345.9 181.945 1343.3 182.656C1331.94 185.699 1319.43 175.823 1315.36 160.621C1311.29 145.419 1317.19 130.627 1328.54 127.585C1331.15 126.893 1333.88 126.85 1336.51 127.459L1336.48 127.36C1329.57 125.194 1321.09 125.213 1311.16 127.873C1287.73 134.152 1277.47 149.372 1282.82 169.356Z" fill="white" stroke="#495057" stroke-width="5" stroke-miterlimit="10"/>
<path d="M1343.29 182.64C1331.94 185.682 1319.43 175.824 1315.36 160.621C1311.28 145.418 1317.19 130.627 1328.54 127.585C1339.9 124.542 1352.4 134.4 1356.48 149.603C1360.55 164.806 1354.65 179.597 1343.29 182.64Z" fill="white" stroke="#495057" stroke-width="5" stroke-miterlimit="10"/>
<path d="M771.974 306.238C777.606 327.258 794.648 334 817.278 327.936C827.138 325.294 834.508 321.047 839.424 315.661C837.454 317.49 835.073 318.817 832.481 319.529C821.109 322.577 808.598 312.7 804.525 297.499C800.452 282.297 806.352 267.505 817.725 264.458C820.324 263.77 823.052 263.728 825.671 264.337L825.645 264.238C818.741 262.072 810.256 262.091 800.346 264.746C776.895 271.03 766.619 286.254 771.974 306.238Z" fill="white" stroke="#495057" stroke-width="5" stroke-miterlimit="10"/>
<path d="M832.459 319.517C821.104 322.56 808.597 312.702 804.524 297.499C800.45 282.296 806.352 267.505 817.707 264.462C829.061 261.42 841.568 271.278 845.642 286.481C849.715 301.684 843.813 316.475 832.459 319.517Z" fill="white" stroke="#495057" stroke-width="5" stroke-miterlimit="10"/>
<path d="M1099.64 206.164L1171.09 187.018L1148.92 176.577L1103.82 188.661C1102 189.148 1100.37 190.19 1099.16 191.644C1097.95 193.098 1097.22 194.891 1097.07 196.777L1096.53 203.492C1096.49 203.891 1096.56 204.292 1096.71 204.662C1096.86 205.031 1097.1 205.36 1097.4 205.621C1097.7 205.881 1098.07 206.066 1098.45 206.161C1098.84 206.255 1099.25 206.256 1099.64 206.164Z" fill="#495057"/>
<path d="M1032.03 207.899L1032.09 207.882C1034.81 207.152 1037.61 208.768 1038.34 211.491L1039.79 216.898C1040.52 219.621 1038.91 222.42 1036.18 223.149L1036.12 223.167C1033.39 223.896 1030.59 222.28 1029.87 219.558L1028.42 214.151C1027.69 211.428 1029.3 208.629 1032.03 207.899Z" fill="#495057"/>
<path d="M1004.27 215.336L1004.34 215.319C1007.06 214.589 1009.86 216.205 1010.59 218.928L1012.04 224.335C1012.77 227.058 1011.15 229.857 1008.43 230.586L1008.36 230.604C1005.64 231.333 1002.84 229.717 1002.11 226.995L1000.66 221.588C999.932 218.865 1001.55 216.066 1004.27 215.336Z" fill="#495057"/>
<path d="M976.511 222.774L976.577 222.757C979.3 222.027 982.098 223.643 982.828 226.366L984.277 231.773C985.006 234.496 983.39 237.295 980.668 238.024L980.602 238.042C977.879 238.771 975.08 237.155 974.35 234.433L972.902 229.026C972.172 226.303 973.788 223.504 976.511 222.774Z" fill="#495057"/>
<path d="M948.755 230.211L948.821 230.194C951.544 229.464 954.342 231.08 955.072 233.803L956.521 239.21C957.25 241.933 955.635 244.732 952.912 245.461L952.846 245.479C950.123 246.209 947.324 244.593 946.595 241.87L945.146 236.463C944.416 233.74 946.032 230.941 948.755 230.211Z" fill="#495057"/>
<path d="M920.998 237.649L921.064 237.631C923.787 236.902 926.586 238.517 927.315 241.24L928.764 246.647C929.494 249.37 927.878 252.169 925.155 252.899L925.089 252.916C922.366 253.646 919.567 252.03 918.838 249.307L917.389 243.9C916.659 241.177 918.275 238.378 920.998 237.649Z" fill="#495057"/>
<path d="M893.239 245.087L893.305 245.069C896.028 244.339 898.827 245.955 899.556 248.678L901.005 254.085C901.735 256.808 900.119 259.607 897.396 260.337L897.33 260.354C894.607 261.084 891.809 259.468 891.079 256.745L889.63 251.338C888.901 248.615 890.516 245.816 893.239 245.087Z" fill="#495057"/>
<path d="M97.0508 817.924C91.1067 817.938 85.3103 819.777 80.4451 823.192C75.5799 826.607 71.8803 831.433 69.8468 837.019" stroke="#495057" stroke-width="5" stroke-miterlimit="10" stroke-linecap="round"/>
<path d="M1.48206 894.942V893.468C11.3397 867.612 37.8811 849.096 69.0114 849.096C78.3758 849.079 87.663 850.79 96.4061 854.144C100.147 855.589 104.193 852.951 104.163 849.186V849.096C104.161 841.122 105.688 833.222 108.663 825.824C118.807 800.481 145.062 782.431 175.822 782.431C206.582 782.431 232.819 800.481 242.969 825.824C243.202 826.421 243.429 826.982 243.644 827.573C244.509 826.976 245.392 826.379 246.281 825.824C258.334 818.358 272.229 814.403 286.407 814.403C300.584 814.403 314.48 818.358 326.532 825.824C345.561 837.818 358.062 858.095 358.062 881.092V881.188C358.062 884.326 361.995 886.087 364.584 884.076C378.905 872.977 398.077 866.174 419.165 866.174C446.488 866.174 470.613 877.566 485.065 894.954L1.48206 894.942Z" fill="white" stroke="#495057" stroke-width="5" stroke-miterlimit="10" stroke-linecap="round"/>
<path d="M135.873 880.209C149 871.586 165.273 871.944 176.711 879.923C176.968 880.102 177.231 880.287 177.487 880.478C177.684 879.982 177.899 879.487 178.126 878.992C181.178 872.426 186.002 866.843 192.056 862.871C198.109 858.898 205.151 856.694 212.389 856.507C223.875 856.298 234.896 861.448 241.341 871.27V871.312" stroke="#495057" stroke-width="5" stroke-miterlimit="10" stroke-linecap="round"/>
<path d="M1967.17 483.414C1971.98 494.414 1974.45 506.288 1974.45 518.29C1974.45 569.294 1930.34 610.644 1875.94 610.644C1824.36 610.644 1782.04 573.514 1777.77 526.181C1760.18 529.529 1741.98 526.097 1726.81 516.575C1699.5 553.955 1650.53 578.869 1594.66 578.869C1534.43 578.869 1482.22 549.908 1456.51 507.59C1447.04 521.872 1431.77 532.938 1413.47 538.419C1413.47 538.858 1413.5 539.297 1413.5 539.742C1413.5 547.151 1410.56 554.256 1405.32 559.495C1400.07 564.735 1392.97 567.678 1385.55 567.678C1378.14 567.678 1371.03 564.735 1365.79 559.495C1360.55 554.256 1357.6 547.151 1357.6 539.742C1357.6 538.926 1357.64 538.115 1357.71 537.315C1328.38 527.227 1307.67 502.486 1307.67 473.598C1307.67 435.705 1343.32 404.987 1387.32 404.987C1408.56 404.987 1427.86 412.151 1442.14 423.813C1455.54 363.02 1518.73 317 1594.66 317C1656.85 317 1710.49 347.854 1735.24 392.441C1744.36 388.314 1754.25 386.166 1764.26 386.141C1774.27 386.116 1784.17 388.214 1793.31 392.296C1802.45 396.378 1810.61 402.351 1817.27 409.822C1823.93 417.292 1828.93 426.089 1831.93 435.632C1847.94 428.198 1865.58 424.951 1883.19 426.196C1900.79 427.441 1917.8 433.137 1932.6 442.749C1934.95 439.052 1938.13 435.958 1941.89 433.716C1945.66 431.475 1949.89 430.149 1954.26 429.845C1958.63 429.541 1963.01 430.269 1967.05 431.968C1971.09 433.667 1974.67 436.291 1977.5 439.628C1980.34 442.965 1982.35 446.922 1983.38 451.179C1984.4 455.436 1984.41 459.874 1983.4 464.135C1982.4 468.396 1980.4 472.361 1977.58 475.71C1974.76 479.059 1971.19 481.698 1967.16 483.414H1967.17Z" fill="#F5BBBB"/>
<path d="M1364.04 497.921C1367.43 497.921 1370.18 495.172 1370.18 491.782C1370.18 488.391 1367.43 485.642 1364.04 485.642C1360.64 485.642 1357.89 488.391 1357.89 491.782C1357.89 495.172 1360.64 497.921 1364.04 497.921Z" fill="#A74602"/>
<path d="M1411.11 454.071C1414.5 454.071 1417.25 451.323 1417.25 447.932C1417.25 444.541 1414.5 441.792 1411.11 441.792C1407.71 441.792 1404.96 444.541 1404.96 447.932C1404.96 451.323 1407.71 454.071 1411.11 454.071Z" fill="#A74602"/>
<path d="M1433.36 469.985C1436.76 469.985 1439.51 467.236 1439.51 463.846C1439.51 460.455 1436.76 457.706 1433.36 457.706C1429.97 457.706 1427.22 460.455 1427.22 463.846C1427.22 467.236 1429.97 469.985 1433.36 469.985Z" fill="#A74602"/>
<path d="M1496.32 454.071C1499.71 454.071 1502.46 451.323 1502.46 447.932C1502.46 444.541 1499.71 441.792 1496.32 441.792C1492.93 441.792 1490.18 444.541 1490.18 447.932C1490.18 451.323 1492.93 454.071 1496.32 454.071Z" fill="#A74602"/>
<path d="M1492.5 504.06C1495.9 504.06 1498.65 501.312 1498.65 497.921C1498.65 494.53 1495.9 491.781 1492.5 491.781C1489.11 491.781 1486.36 494.53 1486.36 497.921C1486.36 501.312 1489.11 504.06 1492.5 504.06Z" fill="#A74602"/>
<path d="M1561.08 485.642C1564.47 485.642 1567.22 482.893 1567.22 479.503C1567.22 476.112 1564.47 473.363 1561.08 473.363C1557.69 473.363 1554.94 476.112 1554.94 479.503C1554.94 482.893 1557.69 485.642 1561.08 485.642Z" fill="#A74602"/>
<path d="M1546.29 507.847C1549.68 507.847 1552.43 505.098 1552.43 501.707C1552.43 498.317 1549.68 495.568 1546.29 495.568C1542.9 495.568 1540.15 498.317 1540.15 501.707C1540.15 505.098 1542.9 507.847 1546.29 507.847Z" fill="#A74602"/>
<path d="M1549.8 403.674C1553.2 403.674 1555.95 400.925 1555.95 397.535C1555.95 394.144 1553.2 391.395 1549.8 391.395C1546.41 391.395 1543.66 394.144 1543.66 397.535C1543.66 400.925 1546.41 403.674 1549.8 403.674Z" fill="#A74602"/>
<path d="M1570.74 391.746C1574.13 391.746 1576.88 388.997 1576.88 385.606C1576.88 382.216 1574.13 379.467 1570.74 379.467C1567.34 379.467 1564.59 382.216 1564.59 385.606C1564.59 388.997 1567.34 391.746 1570.74 391.746Z" fill="#A74602"/>
<path d="M1534.55 374.127C1537.94 374.127 1540.69 371.379 1540.69 367.988C1540.69 364.597 1537.94 361.848 1534.55 361.848C1531.16 361.848 1528.41 364.597 1528.41 367.988C1528.41 371.379 1531.16 374.127 1534.55 374.127Z" fill="#A74602"/>
<path d="M1624.4 435.914C1627.79 435.914 1630.54 433.166 1630.54 429.775C1630.54 426.384 1627.79 423.635 1624.4 423.635C1621 423.635 1618.25 426.384 1618.25 429.775C1618.25 433.166 1621 435.914 1624.4 435.914Z" fill="#A74602"/>
<path d="M1604.48 533.571C1607.87 533.571 1610.62 530.822 1610.62 527.431C1610.62 524.041 1607.87 521.292 1604.48 521.292C1601.09 521.292 1598.34 524.041 1598.34 527.431C1598.34 530.822 1601.09 533.571 1604.48 533.571Z" fill="#A74602"/>
<path d="M1648.83 762.405C1652.22 762.405 1654.97 759.656 1654.97 756.265C1654.97 752.875 1652.22 750.126 1648.83 750.126C1645.44 750.126 1642.69 752.875 1642.69 756.265C1642.69 759.656 1645.44 762.405 1648.83 762.405Z" fill="#A74602"/>
<path d="M1846.18 415.948C1849.57 415.948 1852.32 413.199 1852.32 409.808C1852.32 406.418 1849.57 403.669 1846.18 403.669C1842.79 403.669 1840.04 406.418 1840.04 409.808C1840.04 413.199 1842.79 415.948 1846.18 415.948Z" fill="#A74602"/>
<path d="M1343.49 556.507C1346.88 556.507 1349.63 553.759 1349.63 550.368C1349.63 546.977 1346.88 544.229 1343.49 544.229C1340.1 544.229 1337.35 546.977 1337.35 550.368C1337.35 553.759 1340.1 556.507 1343.49 556.507Z" fill="#A74602"/>
<path d="M1667.26 372.172C1670.65 372.172 1673.4 369.423 1673.4 366.032C1673.4 362.641 1670.65 359.893 1667.26 359.893C1663.87 359.893 1661.12 362.641 1661.12 366.032C1661.12 369.423 1663.87 372.172 1667.26 372.172Z" fill="#A74602"/>
<path d="M1673.4 400.793C1676.79 400.793 1679.54 398.044 1679.54 394.653C1679.54 391.263 1676.79 388.514 1673.4 388.514C1670 388.514 1667.25 391.263 1667.25 394.653C1667.25 398.044 1670 400.793 1673.4 400.793Z" fill="#A74602"/>
<path d="M1661.12 485.642C1664.51 485.642 1667.26 482.893 1667.26 479.503C1667.26 476.112 1664.51 473.363 1661.12 473.363C1657.72 473.363 1654.97 476.112 1654.97 479.503C1654.97 482.893 1657.72 485.642 1661.12 485.642Z" fill="#A74602"/>
<path d="M1722.76 454.071C1726.16 454.071 1728.91 451.323 1728.91 447.932C1728.91 444.541 1726.16 441.792 1722.76 441.792C1719.37 441.792 1716.62 444.541 1716.62 447.932C1716.62 451.323 1719.37 454.071 1722.76 454.071Z" fill="#A74602"/>
<path d="M1735.04 469.985C1738.44 469.985 1741.19 467.236 1741.19 463.846C1741.19 460.455 1738.44 457.706 1735.04 457.706C1731.65 457.706 1728.9 460.455 1728.9 463.846C1728.9 467.236 1731.65 469.985 1735.04 469.985Z" fill="#A74602"/>
<path d="M1796.02 429.775C1799.41 429.775 1802.16 427.026 1802.16 423.636C1802.16 420.245 1799.41 417.496 1796.02 417.496C1792.63 417.496 1789.88 420.245 1789.88 423.636C1789.88 427.026 1792.63 429.775 1796.02 429.775Z" fill="#A74602"/>
<path d="M1817.08 543.22C1820.47 543.22 1823.22 540.471 1823.22 537.08C1823.22 533.689 1820.47 530.941 1817.08 530.941C1813.69 530.941 1810.94 533.689 1810.94 537.08C1810.94 540.471 1813.69 543.22 1817.08 543.22Z" fill="#A74602"/>
<path d="M1844.58 529.769C1847.97 529.769 1850.72 527.02 1850.72 523.629C1850.72 520.239 1847.97 517.49 1844.58 517.49C1841.19 517.49 1838.44 520.239 1838.44 523.629C1838.44 527.02 1841.19 529.769 1844.58 529.769Z" fill="#A74602"/>
<path d="M1866.93 573.457C1870.32 573.457 1873.07 570.708 1873.07 567.317C1873.07 563.926 1870.32 561.178 1866.93 561.178C1863.54 561.178 1860.79 563.926 1860.79 567.317C1860.79 570.708 1863.54 573.457 1866.93 573.457Z" fill="#A74602"/>
<path d="M1956.22 463.851C1959.62 463.851 1962.37 461.102 1962.37 457.711C1962.37 454.321 1959.62 451.572 1956.22 451.572C1952.83 451.572 1950.08 454.321 1950.08 457.711C1950.08 461.102 1952.83 463.851 1956.22 463.851Z" fill="#A74602"/>
<path d="M1909.56 513.981C1912.95 513.981 1915.7 511.232 1915.7 507.842C1915.7 504.451 1912.95 501.702 1909.56 501.702C1906.17 501.702 1903.42 504.451 1903.42 507.842C1903.42 511.232 1906.17 513.981 1909.56 513.981Z" fill="#A74602"/>
<path d="M1672.99 773.131V748.102C1672.99 738.025 1683.22 729.856 1695.83 729.856V736.775C1695.83 751.093 1687.37 764.575 1672.99 773.131Z" fill="#F5BBBB"/>
<path d="M1674.44 750.147C1667.34 746.92 1661.31 741.715 1657.08 735.154C1652.85 728.594 1650.61 720.956 1650.61 713.153V695.551C1656.93 695.551 1662.99 698.061 1667.46 702.529C1671.93 706.997 1674.44 713.058 1674.44 719.377V750.147Z" fill="#F5BBBB"/>
<path d="M1436 396.635C1435.93 397.096 1435.86 397.556 1435.77 398.006C1433.87 398.177 1431.95 398.13 1430.06 397.864C1416.23 395.95 1406.6 383.049 1408.53 369.06C1408.6 368.6 1408.67 368.14 1408.76 367.69C1410.66 367.519 1412.58 367.565 1414.47 367.826C1428.3 369.74 1437.95 382.641 1436 396.635Z" fill="#F5BBBB"/>
<path d="M1734.31 548.381C1734.71 548.6 1735.12 548.831 1735.51 549.071C1735.02 550.912 1734.32 552.691 1733.42 554.374C1726.85 566.684 1711.41 571.276 1698.94 564.629C1698.53 564.409 1698.12 564.179 1697.73 563.944C1698.23 562.101 1698.93 560.32 1699.83 558.636C1706.4 546.326 1721.83 541.734 1734.31 548.381Z" fill="#F5BBBB"/>
<path d="M1882.76 641.524C1883.17 641.744 1883.57 641.969 1883.97 642.209C1883.47 644.051 1882.77 645.83 1881.87 647.512C1875.31 659.828 1859.87 664.419 1847.39 657.772C1846.99 657.553 1846.58 657.323 1846.18 657.082C1846.68 655.241 1847.38 653.462 1848.28 651.779C1854.85 639.464 1870.29 634.877 1882.76 641.524Z" fill="#F5BBBB"/>
<path d="M1749.82 525.904V1235.69" stroke="#59221D" stroke-width="5" stroke-miterlimit="10"/>
<path d="M1854.5 608.442C1854.5 608.442 1836.68 685.248 1777.69 712.876C1769.4 716.711 1762.37 722.832 1757.43 730.521C1752.49 738.209 1749.86 747.146 1749.82 756.281" stroke="#59221D" stroke-width="5" stroke-miterlimit="10"/>
<path d="M1634.59 574.492C1634.59 574.492 1658.83 628.706 1722.55 652.171C1730.57 655.15 1737.48 660.512 1742.36 667.537C1747.23 674.562 1749.84 682.911 1749.82 691.461" stroke="#59221D" stroke-width="5" stroke-miterlimit="10"/>
<path d="M1518.64 561.183V573.885C1518.64 577.945 1519.44 581.965 1520.99 585.716C1522.55 589.466 1524.82 592.874 1527.7 595.745C1530.57 598.615 1533.98 600.892 1537.73 602.446C1541.48 603.999 1545.5 604.798 1549.57 604.797H1634.33C1646.8 604.794 1658.79 609.597 1667.81 618.206" stroke="#59221D" stroke-width="5" stroke-miterlimit="10"/>
<path d="M1672.76 747.558V783.966C1672.76 794.065 1674.98 804.042 1679.25 813.192C1683.53 822.342 1689.76 830.444 1697.51 836.926L1724.02 859.162C1732.11 865.937 1738.6 874.399 1743.06 883.953C1747.52 893.508 1749.83 903.922 1749.82 914.464" stroke="#59221D" stroke-width="5" stroke-miterlimit="10"/>
<path d="M233.751 667.473V1273.94" stroke="#59221D" stroke-width="5" stroke-miterlimit="10"/>
<path d="M358.022 697.71C349.435 720.815 323.693 767.389 261.126 786.733C253.198 789.191 246.265 794.122 241.342 800.803C236.42 807.484 233.767 815.565 233.772 823.863" stroke="#59221D" stroke-width="5" stroke-miterlimit="10" stroke-linecap="round"/>
<path d="M176.6 706.077C176.6 706.077 179.995 725.95 216.103 732.481C226.044 734.28 233.84 742.799 233.84 752.877" stroke="#59221D" stroke-width="5" stroke-miterlimit="10"/>
<path d="M270.408 660.811V682.544C270.412 687.603 268.818 692.533 265.854 696.632C262.89 700.732 258.707 703.792 253.901 705.377L248.512 707.155C244.261 708.552 240.561 711.255 237.938 714.878C235.315 718.5 233.903 722.858 233.903 727.33" stroke="#59221D" stroke-width="5" stroke-miterlimit="10"/>
<path d="M395.767 702.49C395.77 704.562 395.364 706.613 394.572 708.528C393.781 710.443 392.62 712.183 391.155 713.649C389.691 715.115 387.951 716.278 386.037 717.071C384.122 717.864 382.07 718.273 379.997 718.273H358.236C355.21 718.272 352.231 719.026 349.571 720.467C346.91 721.908 344.652 723.99 343 726.525" stroke="#59221D" stroke-width="5" stroke-miterlimit="10"/>
<path d="M57.2289 742.909C57.6684 743.035 58.1079 743.171 58.5369 743.322C58.4397 745.203 58.129 747.066 57.6108 748.876C53.807 762.133 39.8214 769.758 26.4217 765.914C25.9769 765.788 25.5374 765.652 25.1084 765.501C25.2071 763.618 25.5195 761.754 26.0397 759.942C29.8383 746.69 43.803 739.065 57.2289 742.909Z" fill="#F5BBBB"/>
<path d="M353.407 541.682C353.23 539.806 353.267 537.917 353.517 536.05C355.353 522.38 368.068 512.815 381.907 514.671C382.362 514.734 382.817 514.807 383.262 514.891C383.439 516.766 383.402 518.656 383.152 520.523C381.316 534.193 368.601 543.758 354.762 541.902C354.307 541.839 353.836 541.766 353.407 541.682Z" fill="#F5BBBB"/>
<path d="M466.124 625.961C466.121 645.517 458.709 664.347 445.379 678.662C432.049 692.977 413.79 701.716 394.275 703.121C374.759 704.525 355.435 698.492 340.191 686.233C324.946 673.975 314.911 656.401 312.104 637.048C292.054 656.068 264.35 667.824 233.752 667.824C222.618 667.836 211.54 666.251 200.857 663.117C197.262 680.134 188.53 695.54 176.14 708.039C179.506 721.815 177.389 736.36 170.234 748.607C163.079 760.853 151.446 769.845 137.787 773.685C124.129 777.526 109.512 775.915 97.0181 769.194C84.5243 762.472 75.1301 751.164 70.8159 737.654C23.8831 727.67 -11 690.232 -11 645.572C-11 593.277 36.8328 550.875 95.8415 550.875C105.1 550.867 114.328 551.931 123.342 554.045C128.02 500.112 175.664 457.732 233.741 457.732C294.822 457.732 344.35 504.589 344.538 562.454C356.146 554.389 369.742 549.656 383.85 548.767C397.959 547.878 412.041 550.868 424.57 557.412C437.099 563.956 447.596 573.805 454.921 585.889C462.246 597.973 466.121 611.832 466.124 625.961Z" fill="#F5BBBB"/>
<path d="M40.4954 675.077C43.6798 675.077 46.2613 672.497 46.2613 669.314C46.2613 666.131 43.6798 663.551 40.4954 663.551C37.311 663.551 34.7295 666.131 34.7295 669.314C34.7295 672.497 37.311 675.077 40.4954 675.077Z" fill="#A74602"/>
<path d="M51.0481 613.222C54.2325 613.222 56.814 610.642 56.814 607.459C56.814 604.276 54.2325 601.696 51.0481 601.696C47.8637 601.696 45.2822 604.276 45.2822 607.459C45.2822 610.642 47.8637 613.222 51.0481 613.222Z" fill="#A74602"/>
<path d="M69.7698 624.742C72.9542 624.742 75.5357 622.162 75.5357 618.98C75.5357 615.797 72.9542 613.217 69.7698 613.217C66.5854 613.217 64.0039 615.797 64.0039 618.98C64.0039 622.162 66.5854 624.742 69.7698 624.742Z" fill="#A74602"/>
<path d="M128.845 609.807C132.029 609.807 134.611 607.227 134.611 604.044C134.611 600.861 132.029 598.281 128.845 598.281C125.661 598.281 123.079 600.861 123.079 604.044C123.079 607.227 125.661 609.807 128.845 609.807Z" fill="#A74602"/>
<path d="M109.435 692.36C112.619 692.36 115.201 689.78 115.201 686.597C115.201 683.415 112.619 680.834 109.435 680.834C106.25 680.834 103.669 683.415 103.669 686.597C103.669 689.78 106.25 692.36 109.435 692.36Z" fill="#A74602"/>
<path d="M189.613 633.8C192.797 633.8 195.378 631.22 195.378 628.037C195.378 624.854 192.797 622.274 189.613 622.274C186.428 622.274 183.847 624.854 183.847 628.037C183.847 631.22 186.428 633.8 189.613 633.8Z" fill="#A74602"/>
<path d="M175.737 654.634C178.921 654.634 181.502 652.054 181.502 648.871C181.502 645.689 178.921 643.108 175.737 643.108C172.552 643.108 169.971 645.689 169.971 648.871C169.971 652.054 172.552 654.634 175.737 654.634Z" fill="#A74602"/>
<path d="M190.241 552.58C193.426 552.58 196.007 550 196.007 546.817C196.007 543.634 193.426 541.054 190.241 541.054C187.057 541.054 184.476 543.634 184.476 546.817C184.476 550 187.057 552.58 190.241 552.58Z" fill="#A74602"/>
<path d="M209.883 541.389C213.067 541.389 215.649 538.809 215.649 535.626C215.649 532.443 213.067 529.863 209.883 529.863C206.699 529.863 204.117 532.443 204.117 535.626C204.117 538.809 206.699 541.389 209.883 541.389Z" fill="#A74602"/>
<path d="M175.931 524.853C179.115 524.853 181.697 522.273 181.697 519.09C181.697 515.907 179.115 513.327 175.931 513.327C172.746 513.327 170.165 515.907 170.165 519.09C170.165 522.273 172.746 524.853 175.931 524.853Z" fill="#A74602"/>
<path d="M249.025 592.769C252.209 592.769 254.791 590.189 254.791 587.006C254.791 583.823 252.209 581.243 249.025 581.243C245.84 581.243 243.259 583.823 243.259 587.006C243.259 590.189 245.84 592.769 249.025 592.769Z" fill="#A74602"/>
<path d="M250.714 686.017C254.066 686.017 256.783 683.301 256.783 679.951C256.783 676.6 254.066 673.885 250.714 673.885C247.362 673.885 244.645 676.6 244.645 679.951C244.645 683.301 247.362 686.017 250.714 686.017Z" fill="#A74602"/>
<path d="M103.669 535.929C107.021 535.929 109.738 533.213 109.738 529.863C109.738 526.513 107.021 523.797 103.669 523.797C100.317 523.797 97.5996 526.513 97.5996 529.863C97.5996 533.213 100.317 535.929 103.669 535.929Z" fill="#A74602"/>
<path d="M289.244 532.954C292.429 532.954 295.01 530.373 295.01 527.191C295.01 524.008 292.429 521.428 289.244 521.428C286.06 521.428 283.479 524.008 283.479 527.191C283.479 530.373 286.06 532.954 289.244 532.954Z" fill="#A74602"/>
<path d="M303.78 556.617C306.964 556.617 309.545 554.037 309.545 550.854C309.545 547.672 306.964 545.092 303.78 545.092C300.595 545.092 298.014 547.672 298.014 550.854C298.014 554.037 300.595 556.617 303.78 556.617Z" fill="#A74602"/>
<path d="M283.478 639.432C286.662 639.432 289.244 636.852 289.244 633.669C289.244 630.487 286.662 627.906 283.478 627.906C280.293 627.906 277.712 630.487 277.712 633.669C277.712 636.852 280.293 639.432 283.478 639.432Z" fill="#A74602"/>
<path d="M341.325 609.807C344.51 609.807 347.091 607.227 347.091 604.044C347.091 600.861 344.51 598.281 341.325 598.281C338.141 598.281 335.56 600.861 335.56 604.044C335.56 607.227 338.141 609.807 341.325 609.807Z" fill="#A74602"/>
<path d="M352.853 624.742C356.037 624.742 358.619 622.162 358.619 618.98C358.619 615.797 356.037 613.217 352.853 613.217C349.668 613.217 347.087 615.797 347.087 618.98C347.087 622.162 349.668 624.742 352.853 624.742Z" fill="#A74602"/>
<path d="M410.067 598.532C413.251 598.532 415.833 595.952 415.833 592.769C415.833 589.586 413.251 587.006 410.067 587.006C406.882 587.006 404.301 589.586 404.301 592.769C404.301 595.952 406.882 598.532 410.067 598.532Z" fill="#A74602"/>
<path d="M389.441 686.598C392.625 686.598 395.207 684.017 395.207 680.835C395.207 677.652 392.625 675.072 389.441 675.072C386.256 675.072 383.675 677.652 383.675 680.835C383.675 684.017 386.256 686.598 389.441 686.598Z" fill="#A74602"/>
<path d="M140.373 750.638C143.558 750.638 146.139 748.058 146.139 744.875C146.139 741.692 143.558 739.112 140.373 739.112C137.189 739.112 134.607 741.692 134.607 744.875C134.607 748.058 137.189 750.638 140.373 750.638Z" fill="#A74602"/>
<path d="M28.252 741.91C31.604 741.91 34.3213 739.194 34.3213 735.844C34.3213 732.494 31.604 729.778 28.252 729.778C24.9 729.778 22.1826 732.494 22.1826 735.844C22.1826 739.194 24.9 741.91 28.252 741.91Z" fill="#A74602"/>
<path d="M1477.65 1346.51H270.559" stroke="#495057" stroke-width="5" stroke-miterlimit="10" stroke-linecap="round"/>
<path d="M1727.99 1252.14C1727.99 1304.26 1689.44 1346.51 1641.89 1346.51H1664.67C1713.96 1346.51 1750.15 1304.26 1750.15 1252.14C1750.15 1200.02 1713.96 1157.77 1664.67 1157.77H1641.89C1689.44 1157.77 1727.99 1200 1727.99 1252.14Z" fill="white" stroke="#495057" stroke-width="5" stroke-miterlimit="10"/>
<path d="M1640.62 1157.79H1641.89" stroke="#495057" stroke-width="5" stroke-miterlimit="10"/>
<path d="M1640.62 1346.51H1641.89" stroke="#495057" stroke-width="5" stroke-miterlimit="10"/>
<path d="M1555.79 1252.14C1555.79 1303.79 1593.65 1345.75 1640.62 1346.5H1641.89C1689.44 1346.5 1727.99 1304.24 1727.99 1252.13C1727.99 1200.01 1689.44 1157.76 1641.89 1157.76H1640.62C1593.65 1158.53 1555.79 1200.49 1555.79 1252.14Z" fill="#1864AB" stroke="#495057" stroke-width="5" stroke-miterlimit="10"/>
<path d="M1641.89 1320.06C1608.04 1320.06 1580.6 1289.98 1580.6 1252.88C1580.6 1215.77 1608.04 1185.69 1641.89 1185.69C1675.74 1185.69 1703.19 1215.77 1703.19 1252.88C1703.19 1289.98 1675.74 1320.06 1641.89 1320.06Z" stroke="#495057" stroke-width="5" stroke-miterlimit="10"/>
<path d="M125.97 1031.78V1251.69H1811.18V1063.9C1811.18 1051.32 1807.56 1039 1800.76 1028.41C1793.95 1017.83 1784.25 1009.42 1772.8 1004.2L1530.18 909.353L1376.56 668.326C1369.92 657.902 1360.76 649.32 1349.93 643.375C1339.09 637.43 1326.93 634.313 1314.58 634.313H749.04C618.158 634.313 565.35 675.081 503.531 746.096L456.57 800.04C424.768 836.568 388.043 868.5 347.45 894.918H201.305C181.414 894.918 162.339 902.819 148.274 916.883C134.209 930.948 126.306 950.023 126.305 969.914V1025.81C126.081 1027.8 125.969 1029.79 125.97 1031.78Z" fill="white" stroke="#495057" stroke-width="5" stroke-miterlimit="10" stroke-linecap="round"/>
<path d="M127.641 1000.04V1240.37H1803.91V1065.92C1803.91 1041.76 1779.16 1019.83 1756.3 1009.83L1518.26 920.697H207.009C185.963 920.695 165.779 929.053 150.894 943.933C136.01 958.813 127.646 978.996 127.641 1000.04Z" fill="#4DABF7"/>
<path d="M85.3225 1209.78H1835.4C1847.16 1209.78 1856.69 1219.31 1856.69 1231.07V1231.41C1856.69 1243.16 1847.16 1252.69 1835.4 1252.69H85.3225C73.5674 1252.69 64.0377 1243.16 64.0377 1231.41V1231.07C64.0377 1219.31 73.5674 1209.78 85.3225 1209.78Z" fill="white" stroke="#495057" stroke-width="5" stroke-miterlimit="10"/>
<path d="M935.738 635.464H1220.21L1192.79 593.969C1189.53 588.991 1185.09 584.9 1179.86 582.063C1174.63 579.226 1168.78 577.732 1162.83 577.714H993.111H992.174C986.387 577.885 980.726 579.451 975.673 582.279C970.619 585.107 966.324 589.113 963.151 593.957L935.738 635.464Z" fill="white"/>
<path d="M935.738 635.464H1205.45L1179.46 598.468C1176.23 593.957 1171.96 590.286 1167.02 587.765C1162.08 585.244 1156.61 583.946 1151.06 583.979H990.139H989.25C983.854 584.083 978.556 585.446 973.779 587.959C969.002 590.472 964.878 594.067 961.736 598.456L935.738 635.464Z" fill="#4DABF7"/>
<path d="M934.055 634.349H1220.21L1192.04 592.578C1188.65 587.535 1184.07 583.402 1178.71 580.543C1173.35 577.683 1167.37 576.185 1161.29 576.18H993.022H992.061C986.144 576.331 980.348 577.894 975.158 580.741C969.968 583.587 965.534 587.634 962.226 592.542L934.055 634.349Z" stroke="#495057" stroke-width="5" stroke-miterlimit="10" stroke-linecap="round"/>
<path d="M934.055 634.349H1050L1021.84 592.578C1018.65 587.563 1014.24 583.435 1009.03 580.574C1003.82 577.714 997.973 576.214 992.028 576.214C986.083 576.214 980.234 577.714 975.023 580.574C969.812 583.435 965.406 587.563 962.214 592.578L934.055 634.349Z" stroke="#495057" stroke-width="5" stroke-miterlimit="10" stroke-linecap="round"/>
<path d="M759.076 981.92H780.814V1003.66H759.076V981.92Z" fill="#495057"/>
<path d="M715.594 981.92H737.332V1003.66H715.594V981.92Z" fill="#495057"/>
<path d="M672.113 981.92H693.851V1003.66H672.113V981.92Z" fill="#495057"/>
<path d="M628.63 981.92H650.368V1003.66H628.63V981.92Z" fill="#495057"/>
<path d="M737.338 1003.66H759.076V1025.4H737.338V1003.66Z" fill="#495057"/>
<path d="M693.857 1003.66H715.595V1025.4H693.857V1003.66Z" fill="#495057"/>
<path d="M650.374 1003.66H672.112V1025.4H650.374V1003.66Z" fill="#495057"/>
<path d="M1191.73 981.92H1213.47V1003.66H1191.73V981.92Z" fill="#495057"/>
<path d="M1148.25 981.92H1169.99V1003.66H1148.25V981.92Z" fill="#495057"/>
<path d="M1104.77 981.92H1126.5V1003.66H1104.77V981.92Z" fill="#495057"/>
<path d="M1061.28 981.92H1083.02V1003.66H1061.28V981.92Z" fill="#495057"/>
<path d="M1169.99 1003.66H1191.72V1025.4H1169.99V1003.66Z" fill="#495057"/>
<path d="M1126.51 1003.66H1148.24V1025.4H1126.51V1003.66Z" fill="#495057"/>
<path d="M1083.02 1003.66H1104.76V1025.4H1083.02V1003.66Z" fill="#495057"/>
<path d="M514.641 788.093V910.033H893.789V677.999C893.789 670.877 890.96 664.047 885.924 659.011C880.889 653.975 874.059 651.146 866.937 651.146H759.679C650.368 651.146 594.916 683.775 534.613 741.496C528.311 747.512 523.292 754.742 519.86 762.751C516.427 770.759 514.652 779.38 514.641 788.093Z" stroke="#495057" stroke-width="5" stroke-miterlimit="10" stroke-linecap="round"/>
<path d="M417.593 910.033H496.358V794.753C496.359 793.884 496.094 793.036 495.599 792.322C495.104 791.607 494.403 791.061 493.589 790.757C492.776 790.452 491.888 790.402 491.046 790.615C490.204 790.828 489.447 791.293 488.876 791.948L467.179 816.873C448.348 838.5 427.769 858.542 405.653 876.796C392.102 887.996 399.996 910.033 417.593 910.033Z" stroke="#495057" stroke-width="5" stroke-miterlimit="10" stroke-linecap="round"/>
<path d="M514.648 879.564V909.944H548.791V879.564C548.791 871.529 550.374 863.573 553.449 856.15C556.524 848.727 561.031 841.982 566.713 836.3C572.394 830.619 579.139 826.113 586.563 823.038C593.986 819.964 601.943 818.382 609.978 818.383H575.822C567.788 818.383 559.833 819.965 552.41 823.04C544.988 826.115 538.244 830.622 532.563 836.303C526.882 841.984 522.376 848.729 519.303 856.152C516.229 863.575 514.647 871.53 514.648 879.564Z" fill="#1864AB" stroke="#495057" stroke-width="5" stroke-miterlimit="10"/>
<path d="M548.791 879.565V909.944H893.688V818.389H609.977C601.943 818.388 593.987 819.97 586.564 823.044C579.141 826.118 572.396 830.624 566.714 836.304C561.033 841.985 556.525 848.729 553.45 856.152C550.375 863.575 548.792 871.53 548.791 879.565Z" fill="white" stroke="#495057" stroke-width="5" stroke-miterlimit="10"/>
<path d="M968.527 1052.11V1052.38C983.409 1052.38 998.131 1049.31 1011.77 1043.36C1025.41 1037.41 1037.68 1028.71 1047.81 1017.81L1149.41 908.35H1111.46L1055.61 998.664C1046.28 1013.75 1033.54 1026.45 1018.42 1035.73C1003.29 1045.01 986.208 1050.62 968.527 1052.11Z" fill="#495057"/>
<path d="M1234.2 777.943H1048.35C1032.59 777.944 1017.15 782.424 1003.83 790.862C990.517 799.3 979.872 811.348 973.139 825.603L948.806 877.142L900.359 818.198C895.113 811.814 887.867 807.387 879.793 805.634C871.719 803.881 863.289 804.904 855.868 808.537L809.463 831.266C804.917 833.491 800.88 836.633 797.607 840.494C794.334 844.354 791.894 848.85 790.442 853.699C788.99 858.548 788.557 863.645 789.169 868.669C789.782 873.693 791.427 878.536 794.002 882.894L861.221 996.695C871.265 1013.69 885.566 1027.78 902.714 1037.57C919.862 1047.36 939.265 1052.5 959.009 1052.51C978.364 1052.51 997.397 1047.56 1014.3 1038.14C1031.21 1028.71 1045.43 1015.13 1055.6 998.664L1111.46 908.35H1365.65L1303.43 814.993C1295.84 803.594 1285.54 794.248 1273.47 787.785C1261.39 781.321 1247.9 777.94 1234.2 777.943Z" fill="#98C8DB"/>
<g opacity="0.5">
<path d="M1021.42 782.425V1033.82C1022.36 1033.21 1023.29 1032.58 1024.22 1031.92V781.518C1023.28 781.804 1022.34 782.108 1021.42 782.425Z" fill="white"/>
<path d="M1004.07 790.719V1043.19C1005 1042.79 1005.94 1042.37 1006.87 1041.93V789.03C1005.92 789.573 1004.96 790.14 1004.07 790.719Z" fill="white"/>
<path d="M986.708 805.273V1049.07C987.645 1048.84 988.576 1048.6 989.507 1048.34V802.337C988.552 803.292 987.615 804.27 986.708 805.273Z" fill="white"/>
<path d="M969.35 833.617V1052.02C970.287 1051.94 971.224 1051.84 972.148 1051.73V827.704L971.021 830.09L969.35 833.617Z" fill="white"/>
<path d="M951.998 870.387V1052.28C952.923 1052.35 953.86 1052.39 954.797 1052.43V864.461L954.63 864.82L951.998 870.387Z" fill="white"/>
<path d="M934.64 859.909V1049.86C935.571 1050.07 936.502 1050.26 937.438 1050.45V863.316L936.37 862.015L934.64 859.909Z" fill="white"/>
<path d="M917.282 838.791V1044.56C918.206 1044.92 919.143 1045.28 920.08 1045.62V842.192L917.282 838.791Z" fill="white"/>
<path d="M899.935 817.691V1035.91C900.854 1036.5 901.791 1037.02 902.733 1037.56V821.086L900.347 818.204L899.935 817.691Z" fill="white"/>
<path d="M882.571 806.353V1022.93C883.49 1023.77 884.421 1024.59 885.37 1025.39V807.326C884.421 806.962 883.514 806.639 882.571 806.353Z" fill="white"/>
<path d="M865.213 805.434V1003.09H865.326C866.209 1004.37 867.11 1005.63 868.029 1006.87V804.999C867.081 805.118 866.144 805.255 865.213 805.434Z" fill="white"/>
<path d="M847.861 812.457V974.067L850.659 978.799V811.085L847.861 812.457Z" fill="white"/>
<path d="M830.502 820.961V944.685L832.603 948.235L833.301 949.417V819.594L830.502 820.961Z" fill="white"/>
<path d="M813.144 829.464V915.296L814.081 916.883L815.942 920.034V828.092L813.144 829.464Z" fill="white"/>
<path d="M795.792 842.812V885.914L798.591 890.651V839.369C797.582 840.454 796.648 841.604 795.792 842.812Z" fill="white"/>
<path d="M1263.85 783.403V908.35H1266.65V784.531C1265.72 784.137 1264.79 783.767 1263.85 783.403Z" fill="white"/>
<path d="M1246.49 778.856V908.344H1249.29V779.316C1248.36 779.149 1247.43 778.993 1246.49 778.856Z" fill="white"/>
<path d="M1229.13 777.943H1231.93V908.35H1229.13V777.943Z" fill="white"/>
<path d="M1211.78 777.943H1214.58V908.35H1211.78V777.943Z" fill="white"/>
<path d="M1194.42 777.943H1197.22V908.35H1194.42V777.943Z" fill="white"/>
<path d="M1177.06 777.943H1179.86V908.35H1177.06V777.943Z" fill="white"/>
<path d="M1159.71 777.943H1162.51V908.35H1159.71V777.943Z" fill="white"/>
<path d="M1142.35 777.943H1145.15V908.35H1142.35V777.943Z" fill="white"/>
<path d="M1125 777.943H1127.79V908.35H1125V777.943Z" fill="white"/>
<path d="M1107.64 777.943V914.526L1107.92 914.085L1110.44 909.997V777.943H1107.64Z" fill="white"/>
<path d="M1090.28 777.943V942.596L1093.08 938.067V777.943H1090.28Z" fill="white"/>
<path d="M1072.93 777.943V970.654L1075.73 966.131V777.943H1072.93Z" fill="white"/>
<path d="M1055.57 777.943V998.729L1055.61 998.664L1058.37 994.206V777.943H1055.57Z" fill="white"/>
<path d="M1038.22 778.564V1020.34C1039.12 1019.46 1040 1018.57 1040.87 1017.66L1041.01 1017.51V778.265C1040.08 778.349 1039.15 778.444 1038.22 778.564Z" fill="white"/>
<path d="M1350.63 885.824V908.35H1353.43V890.025L1350.63 885.824Z" fill="white"/>
<path d="M1333.27 859.789V908.35H1336.07V863.984L1334.76 862.015L1333.27 859.789Z" fill="white"/>
<path d="M1315.91 833.742V908.35H1318.72V837.937L1315.91 833.742Z" fill="white"/>
<path d="M1298.54 808.424V908.35H1301.33V812.046C1300.82 811.336 1300.29 810.631 1299.75 809.945C1299.37 809.416 1298.97 808.909 1298.54 808.424Z" fill="white"/>
<path d="M1281.2 792.491V908.35H1284V794.496C1283.13 793.84 1282.24 793.203 1281.34 792.587L1281.2 792.491Z" fill="white"/>
<path d="M898.48 1035.02C898.957 1035.32 899.44 1035.62 899.93 1035.92C900.849 1036.51 901.786 1037.03 902.728 1037.57C902.872 1037.66 903.015 1037.74 903.164 1037.82H1014.87C1016.46 1036.93 1018.02 1036 1019.56 1035.02H898.48Z" fill="white"/>
<path d="M877.165 1017.66C878.072 1018.61 879.002 1019.55 879.951 1020.46H1038.08C1038.13 1020.43 1038.17 1020.38 1038.22 1020.34C1039.12 1019.46 1040 1018.57 1040.87 1017.66H877.165Z" fill="white"/>
<path d="M863.458 1000.3C864.055 1001.2 864.616 1002.09 865.213 1002.97V1003.1H1052.69C1053.32 1002.18 1053.95 1001.25 1054.55 1000.3H863.458Z" fill="white"/>
<path d="M853.105 982.952L854.764 985.751H1063.59L1065.32 982.952H853.105Z" fill="white"/>
<path d="M842.855 965.594L844.507 968.392H1074.33L1075.73 966.13L1076.06 965.594H842.855Z" fill="white"/>
<path d="M832.603 948.235L833.301 949.416L834.256 951.039H1085.06L1086.79 948.235H832.603Z" fill="white"/>
<path d="M822.679 931.437L824.332 934.242H1095.45L1097.18 931.437H822.679Z" fill="white"/>
<path d="M812.429 914.085L813.145 915.296L814.082 916.883H1106.19L1107.64 914.526L1107.92 914.085H812.429Z" fill="white"/>
<path d="M802.177 896.726L803.83 899.525H1359.76L1357.89 896.726H802.177Z" fill="white"/>
<path d="M792.17 879.374C792.599 880.316 793.077 881.253 793.596 882.172H1348.19L1346.32 879.374H792.17Z" fill="white"/>
<path d="M954.629 864.814H1336.62L1336.07 863.984L1334.76 862.015H955.948L954.796 864.456L954.629 864.814Z" fill="white"/>
<path d="M788.71 862.015V864.814H938.668L937.439 863.316L936.371 862.015H788.71Z" fill="white"/>
<path d="M962.822 847.455H1325.06L1323.19 844.656H964.147L962.822 847.455Z" fill="white"/>
<path d="M798.143 844.656V847.455H924.406L922.103 844.656H798.143Z" fill="white"/>
<path d="M971.021 830.102H1313.49L1311.63 827.304H972.149V827.703L971.021 830.102Z" fill="white"/>
<path d="M811.843 830.102H910.139L907.835 827.304H817.559L815.942 828.091L813.144 829.464L811.843 830.102Z" fill="white"/>
<path d="M980.688 812.732H1301.87C1301.7 812.499 1301.53 812.26 1301.36 812.034C1300.84 811.324 1300.31 810.62 1299.78 809.933H982.782C982.066 810.858 981.368 811.795 980.688 812.732Z" fill="white"/>
<path d="M847.282 812.732H894.804C893.518 811.706 892.162 810.771 890.746 809.933H852.993L850.659 811.073L847.861 812.446L847.282 812.732Z" fill="white"/>
<path d="M997.396 795.385H1285.18C1284.79 795.093 1284.4 794.789 1283.98 794.496C1283.11 793.84 1282.22 793.203 1281.32 792.587H1001.21C999.92 793.476 998.643 794.413 997.396 795.385Z" fill="white"/>
</g>
<path d="M913.827 836.26L974.44 910.033" stroke="#495057" stroke-width="5" stroke-miterlimit="10" stroke-linecap="round"/>
<path d="M1042.67 777.943C1029.45 777.944 1016.49 781.618 1005.23 788.557C993.977 795.495 984.869 805.424 978.928 817.237L948.806 877.142" stroke="#495057" stroke-width="5" stroke-miterlimit="10" stroke-linecap="round"/>
<path d="M1112.02 911.149L1126.06 882.452" stroke="#495057" stroke-width="5" stroke-miterlimit="10" stroke-linecap="round"/>
<path d="M1168.27 777.943H1194.42L1167.92 761.706V829.261L1109.21 778.498L1114.37 761.706H1106.86C1103.56 761.705 1100.33 762.663 1097.56 764.463L1076.85 777.943H1108.78" stroke="#495057" stroke-width="5" stroke-miterlimit="10" stroke-linecap="round"/>
<path d="M1110.32 777.943L1166.8 828.7V741.8H1121.47L1110.32 777.943Z" fill="#495057"/>
<path d="M1121.47 741.794L1110.32 777.943L1166.79 755.542V741.794H1121.47Z" fill="#1A0C12"/>
<path d="M1120.12 718.963V720.36H1122.17C1123.8 720.36 1125.36 721.007 1126.51 722.158C1127.66 723.31 1128.31 724.871 1128.31 726.5V727.479C1130.61 727.419 1132.83 726.628 1134.66 725.221C1136.48 723.813 1137.81 721.862 1138.45 719.65L1139.43 716.248C1140.27 713.345 1142.03 710.793 1144.45 708.977C1146.86 707.162 1149.8 706.18 1152.83 706.182H1159.92C1161.75 706.181 1163.57 706.541 1165.26 707.241C1166.95 707.942 1168.49 708.969 1169.79 710.264C1171.08 711.559 1172.11 713.097 1172.81 714.789C1173.51 716.481 1173.87 718.295 1173.87 720.127V718.934C1173.87 713.491 1171.71 708.271 1167.86 704.423C1164.01 700.574 1158.79 698.412 1153.35 698.412H1140.64C1137.94 698.412 1135.27 698.944 1132.78 699.977C1130.29 701.01 1128.03 702.525 1126.12 704.433C1124.21 706.342 1122.7 708.608 1121.67 711.101C1120.64 713.594 1120.12 716.266 1120.12 718.963Z" fill="#1A0C12"/>
<path d="M1106.4 731.321C1106.4 734.228 1107.55 737.014 1109.61 739.069C1111.66 741.123 1114.45 742.277 1117.36 742.277H1126.36L1130.3 748.525C1131.28 750.085 1132.65 751.371 1134.26 752.262C1135.87 753.153 1137.69 753.62 1139.53 753.621H1162.96C1165.86 753.619 1168.63 752.469 1170.68 750.422C1172.72 748.376 1173.87 745.6 1173.87 742.707V720.127C1173.87 718.295 1173.51 716.481 1172.81 714.789C1172.11 713.097 1171.08 711.559 1169.79 710.264C1168.49 708.969 1166.95 707.942 1165.26 707.241C1163.57 706.541 1161.75 706.181 1159.92 706.182H1152.84C1149.82 706.18 1146.88 707.162 1144.46 708.977C1142.05 710.793 1140.29 713.345 1139.45 716.248L1138.47 719.65C1137.83 721.862 1136.5 723.813 1134.68 725.221C1132.85 726.628 1130.63 727.419 1128.33 727.479V726.5C1128.33 724.871 1127.68 723.31 1126.53 722.158C1125.38 721.007 1123.81 720.36 1122.19 720.36H1117.36C1115.92 720.359 1114.5 720.642 1113.17 721.192C1111.84 721.743 1110.63 722.55 1109.61 723.568C1108.59 724.586 1107.78 725.795 1107.23 727.125C1106.68 728.456 1106.4 729.881 1106.4 731.321Z" fill="#495057"/>
<path d="M1122.14 732.097C1122.14 730.47 1121.5 728.909 1120.35 727.757C1119.2 726.606 1117.64 725.958 1116.01 725.957" stroke="#1A0C12" stroke-width="5" stroke-miterlimit="10" stroke-linecap="round"/>
<path d="M1161.95 737.265C1168.41 737.265 1164.89 721.1 1164.89 721.1C1164.89 721.1 1169.44 720.115 1173.31 721.1" stroke="#1A0C12" stroke-width="5" stroke-miterlimit="10" stroke-linecap="round"/>
<path d="M1154.29 720.169C1154.29 720.169 1148.27 719.805 1143.94 721.845" stroke="#1A0C12" stroke-width="5" stroke-miterlimit="10" stroke-linecap="round"/>
<path d="M1150.86 730.856C1149.99 730.856 1149.28 729.651 1149.28 728.165C1149.28 726.679 1149.99 725.474 1150.86 725.474C1151.74 725.474 1152.44 726.679 1152.44 728.165C1152.44 729.651 1151.74 730.856 1150.86 730.856Z" fill="#1A0C12"/>
<path d="M1171.01 730.683C1170.2 730.683 1169.53 729.556 1169.53 728.165C1169.53 726.774 1170.2 725.647 1171.01 725.647C1171.83 725.647 1172.49 726.774 1172.49 728.165C1172.49 729.556 1171.83 730.683 1171.01 730.683Z" fill="#1A0C12"/>
<path d="M1160.55 742.838C1160.55 742.838 1153.72 743.435 1152.44 741.167" stroke="#1A0C12" stroke-width="5" stroke-miterlimit="10" stroke-linecap="round"/>
<path d="M789.21 859.449C803.066 866.61 821.904 865.231 832.269 858.572L854.305 844.412C867.009 836.249 875.047 819.857 870.714 804.819C869.813 804.855 868.924 804.915 868.011 805.016C867.098 805.118 866.144 805.255 865.213 805.434C861.971 806.044 858.826 807.088 855.862 808.537L852.992 809.945L850.659 811.085L847.86 812.457L847.264 812.744L833.283 819.594L830.484 820.961L817.542 827.304L815.925 828.091L813.126 829.464L811.825 830.102L809.439 831.296C805.34 833.294 801.653 836.043 798.567 839.399C797.558 840.483 796.623 841.634 795.768 842.842C792.255 847.757 790.003 853.46 789.21 859.449Z" fill="#1A0C12"/>
<path d="M849.394 834.476C856.184 830.156 861.314 823.668 863.952 816.065C866.59 808.461 866.58 800.189 863.924 792.593C856.166 770.514 842.204 740.081 829.547 740.785C823.204 741.149 829.016 764.571 819.517 764.935C808.346 765.364 764.351 700.035 753.205 707.315C742.058 714.595 727.743 768.282 740.005 792.049C746.671 804.974 767.394 828.545 785.313 844.513C791.118 849.681 798.451 852.813 806.198 853.432C813.945 854.052 821.683 852.125 828.235 847.944L849.394 834.476Z" fill="#495057"/>
<path d="M737.631 756.586C740.382 761.915 756.129 787.395 761.499 794.997" stroke="#1A0C12" stroke-width="5" stroke-miterlimit="10" stroke-linecap="round"/>
<path d="M741.145 735.755C743.896 741.09 765.05 772.155 771.064 779.572" stroke="#1A0C12" stroke-width="5" stroke-miterlimit="10" stroke-linecap="round"/>
<path d="M747.118 718.534C749.869 723.868 775.02 754.152 781.029 761.599" stroke="#1A0C12" stroke-width="5" stroke-miterlimit="10" stroke-linecap="round"/>
<path d="M821.958 775.789C821.958 775.789 811.814 803.029 823.443 826.617" stroke="#1A0C12" stroke-width="5" stroke-miterlimit="10" stroke-linecap="round"/>
<path d="M1339.83 910.033H1441.4C1443.06 878.622 1425.88 854.383 1400.23 854.156C1374.32 853.906 1348.66 878.246 1339.83 910.033Z" stroke="#495057" stroke-width="5" stroke-miterlimit="10" stroke-linecap="round"/>
<path d="M514.302 1253.11H262.277C264.371 1190.89 307.889 1130.36 388.42 1130.36C457.68 1130.34 510.668 1188.3 514.302 1253.11Z" fill="#495057"/>
<path d="M249.948 1191.69C273.817 1136.02 326.834 1097.28 388.42 1097.28C452.143 1097.28 506.7 1138.75 529.243 1197.53" stroke="#495057" stroke-width="5" stroke-miterlimit="10" stroke-linecap="round"/>
<path d="M376.928 1346.51H399.71C448.998 1346.51 485.188 1304.26 485.188 1252.14C485.188 1200.02 448.998 1157.77 399.71 1157.77H376.928C424.48 1157.77 463.027 1200.02 463.027 1252.14C463.027 1304.26 424.48 1346.51 376.928 1346.51Z" fill="#1864AB" stroke="#495057" stroke-width="5" stroke-miterlimit="10"/>
<path d="M290.841 1252.14C290.841 1303.8 328.702 1345.76 375.662 1346.5H376.927C424.479 1346.5 463.026 1304.24 463.026 1252.13C463.026 1200.01 424.479 1157.76 376.927 1157.76H375.662C328.702 1158.53 290.841 1200.48 290.841 1252.14Z" fill="white" stroke="#495057" stroke-width="5" stroke-miterlimit="10"/>
<path d="M376.934 1320.06C343.082 1320.06 315.64 1289.98 315.64 1252.88C315.64 1215.77 343.082 1185.69 376.934 1185.69C410.785 1185.69 438.228 1215.77 438.228 1252.88C438.228 1289.98 410.785 1320.06 376.934 1320.06Z" stroke="#495057" stroke-width="5" stroke-miterlimit="10"/>
<path d="M1489.33 1253.11H1237.3C1239.4 1190.89 1282.91 1130.36 1363.44 1130.36C1432.7 1130.34 1485.69 1188.3 1489.33 1253.11Z" fill="#495057"/>
<path d="M1224.97 1191.69C1248.84 1136.02 1301.85 1097.28 1363.44 1097.28C1427.16 1097.28 1481.72 1138.75 1504.26 1197.53" stroke="#495057" stroke-width="5" stroke-miterlimit="10" stroke-linecap="round"/>
<path d="M1351.95 1346.51H1374.73C1424.02 1346.51 1460.21 1304.26 1460.21 1252.14C1460.21 1200.02 1424.02 1157.77 1374.73 1157.77H1351.95C1399.5 1157.77 1438.05 1200.02 1438.05 1252.14C1438.05 1304.26 1399.5 1346.51 1351.95 1346.51Z" fill="#1864AB" stroke="#495057" stroke-width="5" stroke-miterlimit="10"/>
<path d="M1265.86 1252.14C1265.86 1303.79 1303.72 1345.75 1350.68 1346.5H1351.95C1399.5 1346.5 1438.05 1304.24 1438.05 1252.13C1438.05 1200.01 1399.5 1157.76 1351.95 1157.76H1350.68C1303.72 1158.53 1265.86 1200.49 1265.86 1252.14Z" fill="white" stroke="#495057" stroke-width="5" stroke-miterlimit="10"/>
<path d="M1351.95 1320.06C1318.1 1320.06 1290.66 1289.98 1290.66 1252.88C1290.66 1215.77 1318.1 1185.69 1351.95 1185.69C1385.8 1185.69 1413.25 1215.77 1413.25 1252.88C1413.25 1289.98 1385.8 1320.06 1351.95 1320.06Z" stroke="#495057" stroke-width="5" stroke-miterlimit="10"/>
<path d="M126.305 1019.96H175.885C184.442 1019.96 192.199 1014.49 195.69 1006.02L206.043 980.828C209.026 973.548 204.127 965.313 196.782 965.313H126.305V1019.96Z" fill="white"/>
<path d="M126.203 1019.96H186.107C190.651 1019.96 195.097 1018.64 198.909 1016.16C202.72 1013.69 205.734 1010.16 207.588 1006.02L218.824 980.828C219.576 979.151 219.897 977.312 219.756 975.479C219.615 973.646 219.017 971.878 218.018 970.335C217.018 968.793 215.648 967.525 214.032 966.648C212.417 965.77 210.608 965.312 208.77 965.313H126.185L126.203 1019.96Z" stroke="#495057" stroke-width="5" stroke-miterlimit="10" stroke-linecap="round"/>
<path d="M126.525 984.098H216.407" stroke="#495057" stroke-width="5" stroke-miterlimit="10" stroke-linecap="round"/>
<path d="M126.526 1001.78H209.092" stroke="#495057" stroke-width="5" stroke-miterlimit="10" stroke-linecap="round"/>
<path d="M1576.76 1090.36H1597.87V1067.69C1597.86 1054.02 1593.91 1040.64 1586.49 1029.16C1579.07 1017.68 1568.49 1008.59 1556.03 1002.97L1548.1 999.392V1061.66C1548.09 1065.43 1548.83 1069.16 1550.27 1072.64C1551.7 1076.12 1553.81 1079.29 1556.47 1081.96C1559.14 1084.62 1562.3 1086.74 1565.78 1088.18C1569.26 1089.62 1572.99 1090.36 1576.76 1090.36Z" fill="white"/>
<path d="M1787.84 1092.59H1808.94V1069.92C1808.94 1056.25 1804.99 1042.87 1797.57 1031.39C1790.15 1019.91 1779.57 1010.81 1767.1 1005.2L1759.18 1001.62V1063.95C1759.18 1067.71 1759.92 1071.44 1761.36 1074.91C1762.8 1078.39 1764.91 1081.55 1767.58 1084.21C1770.24 1086.87 1773.4 1088.98 1776.87 1090.42C1780.35 1091.86 1784.07 1092.6 1787.84 1092.59Z" fill="white"/>
<path d="M889.982 1191.71H587.858C573.941 1150.07 548.565 1113.19 514.642 1085.31V921.812" stroke="#495057" stroke-width="5" stroke-miterlimit="10" stroke-linecap="round"/>
<path d="M912.042 812.732V677.993C912.042 670.871 914.871 664.041 919.907 659.005C924.943 653.969 931.773 651.14 938.894 651.14H1325.21C1337.57 651.141 1349.73 654.258 1360.56 660.203C1371.4 666.148 1380.56 674.729 1387.2 685.153" stroke="#495057" stroke-width="5" stroke-miterlimit="10" stroke-linecap="round"/>
<path d="M1302.29 1063.95C1272.14 1074.01 1244.62 1090.71 1221.77 1112.82C1198.93 1134.93 1181.33 1161.88 1170.29 1191.69H912.042V1058.03" stroke="#495057" stroke-width="5" stroke-miterlimit="10" stroke-linecap="round"/>
<path d="M627.873 944.231C630.075 939.798 625.361 935.358 622.264 935.358H560.003C556.907 935.358 552.801 938.783 554.394 944.231" stroke="#495057" stroke-width="5" stroke-miterlimit="10" stroke-linecap="round"/>
<path d="M1597.87 1251.69V1063.9C1597.87 1051.32 1594.25 1039 1587.44 1028.42C1580.63 1017.83 1570.93 1009.43 1559.48 1004.2L1316.86 909.353L1163.24 668.326C1156.6 657.902 1147.44 649.321 1136.61 643.376C1125.78 637.431 1113.62 634.314 1101.26 634.313" stroke="#495057" stroke-width="5" stroke-miterlimit="10" stroke-linecap="round"/>
<path d="M1115.75 910.033H1530.57" stroke="#495057" stroke-width="5" stroke-miterlimit="10" stroke-linecap="round"/>
<path d="M1521.36 895.527L1528.16 906.19C1532.29 901.846 1532.79 901.112 1543.47 901.112H1573.67C1576 901.113 1578.31 900.655 1580.46 899.763C1582.62 898.872 1584.57 897.565 1586.22 895.917C1587.87 894.269 1589.18 892.312 1590.07 890.158C1590.96 888.005 1591.42 885.697 1591.42 883.366V872.625C1591.42 870.294 1590.96 867.986 1590.07 865.832C1589.18 863.679 1587.87 861.722 1586.22 860.074C1584.57 858.426 1582.62 857.119 1580.46 856.228C1578.31 855.336 1576 854.878 1573.67 854.878H1562.33C1557.41 854.879 1552.56 856.121 1548.24 858.491C1543.92 860.86 1540.26 864.281 1537.61 868.436L1521.36 895.527Z" fill="white" stroke="#495057" stroke-width="5" stroke-miterlimit="10" stroke-linecap="round"/>
<path d="M1527.37 904.955L1528.79 907.175C1530.17 906.118 1531.66 905.208 1533.23 904.46C1539.13 901.649 1546.06 901.112 1555.13 901.112H1585.33C1587.66 901.113 1589.97 900.655 1592.12 899.763C1594.28 898.872 1596.23 897.565 1597.88 895.917C1599.53 894.269 1600.84 892.312 1601.73 890.158C1602.62 888.005 1603.08 885.697 1603.08 883.366V872.625C1603.08 870.294 1602.62 867.986 1601.73 865.832C1600.84 863.679 1599.53 861.722 1597.88 860.074C1596.23 858.426 1594.28 857.119 1592.12 856.228C1589.97 855.336 1587.66 854.878 1585.33 854.878H1573.99C1569.07 854.878 1564.22 856.12 1559.9 858.49C1555.57 860.86 1551.92 864.28 1549.27 868.436L1527.37 904.955Z" fill="white"/>
<path d="M1603.08 873.096V883.366C1603.08 885.696 1602.62 888.004 1601.73 890.158C1600.84 892.311 1599.53 894.268 1597.88 895.916C1596.23 897.564 1594.28 898.871 1592.12 899.763C1589.97 900.654 1587.66 901.113 1585.33 901.112H1555.12C1546.04 901.112 1539.12 901.643 1533.23 904.46L1550.53 875.573C1553.18 871.416 1556.83 867.994 1561.15 865.623C1565.48 863.253 1570.32 862.01 1575.25 862.009H1586.59C1590.13 862.001 1593.59 863.052 1596.53 865.028C1599.47 867.004 1601.75 869.814 1603.08 873.096Z" fill="#4DABF7"/>
<path d="M1527.37 904.955L1528.79 907.175C1535.66 901.954 1543.7 901.112 1555.13 901.112H1585.33C1587.66 901.113 1589.97 900.655 1592.12 899.763C1594.28 898.872 1596.23 897.565 1597.88 895.917C1599.53 894.269 1600.84 892.312 1601.73 890.158C1602.62 888.005 1603.08 885.697 1603.08 883.366V872.625C1603.08 870.294 1602.62 867.986 1601.73 865.832C1600.84 863.679 1599.53 861.722 1597.88 860.074C1596.23 858.426 1594.28 857.119 1592.12 856.228C1589.97 855.336 1587.66 854.878 1585.33 854.878H1573.99C1569.07 854.878 1564.22 856.12 1559.9 858.49C1555.57 860.86 1551.92 864.28 1549.27 868.436L1527.37 904.955Z" stroke="#495057" stroke-width="5" stroke-miterlimit="10" stroke-linecap="round"/>
<path d="M1190.31 873.031V883.772C1190.31 886.102 1190.77 888.41 1191.66 890.564C1192.55 892.717 1193.86 894.674 1195.51 896.322C1197.16 897.97 1199.11 899.277 1201.27 900.169C1203.42 901.06 1205.73 901.519 1208.06 901.518H1267.87C1276.94 901.518 1283.86 902.049 1289.76 904.866C1292.32 906.088 1294.66 907.721 1296.69 909.699H1298.23L1273.77 868.848C1271.12 864.692 1267.46 861.271 1263.14 858.901C1258.82 856.531 1253.97 855.289 1249.04 855.29H1208.08C1205.75 855.286 1203.44 855.742 1201.28 856.632C1199.13 857.522 1197.17 858.828 1195.52 860.476C1193.87 862.123 1192.56 864.08 1191.66 866.235C1190.77 868.389 1190.31 870.698 1190.31 873.031Z" fill="white"/>
<path d="M1190.31 873.496V883.742C1190.31 886.072 1190.77 888.38 1191.66 890.534C1192.55 892.687 1193.86 894.644 1195.51 896.292C1197.15 897.94 1199.11 899.247 1201.26 900.139C1203.42 901.03 1205.73 901.489 1208.06 901.488H1267.86C1276.94 901.488 1283.86 902.019 1289.76 904.836L1272.45 875.948C1269.8 871.792 1266.15 868.37 1261.83 865.999C1257.51 863.628 1252.66 862.385 1247.73 862.385H1206.77C1203.23 862.385 1199.77 863.443 1196.84 865.423C1193.91 867.403 1191.63 870.214 1190.31 873.496Z" fill="#4DABF7"/>
<path d="M1190.31 873.031V883.772C1190.31 886.102 1190.77 888.41 1191.66 890.564C1192.55 892.717 1193.86 894.674 1195.51 896.322C1197.16 897.97 1199.11 899.277 1201.27 900.169C1203.42 901.06 1205.73 901.519 1208.06 901.518H1267.87C1280.72 901.518 1289.26 902.58 1296.69 909.699H1298.23L1273.77 868.848C1271.12 864.692 1267.46 861.271 1263.14 858.901C1258.82 856.531 1253.97 855.289 1249.04 855.29H1208.08C1205.75 855.286 1203.44 855.742 1201.28 856.632C1199.13 857.522 1197.17 858.828 1195.52 860.476C1193.87 862.123 1192.56 864.08 1191.66 866.235C1190.77 868.389 1190.31 870.698 1190.31 873.031Z" stroke="#495057" stroke-width="5" stroke-miterlimit="10" stroke-linecap="round"/>
<path d="M2275.86 1469.56H1505.01" stroke="#495057" stroke-width="5" stroke-miterlimit="10" stroke-linecap="round"/>
<path d="M2029.31 1494.51H1596.64" stroke="#495057" stroke-width="5" stroke-miterlimit="10" stroke-linecap="round"/>
<path d="M1541.55 1149.18V1407.98C1541.55 1417.52 1545.34 1426.66 1552.08 1433.41C1558.83 1440.15 1567.98 1443.94 1577.51 1443.94H1732.94C1742.44 1443.89 1751.53 1440.07 1758.23 1433.33C1764.93 1426.59 1768.69 1417.48 1768.69 1407.98V1149.18C1768.69 1139.68 1764.93 1130.56 1758.23 1123.82C1751.54 1117.08 1742.44 1113.26 1732.94 1113.2H1577.51C1567.97 1113.21 1558.82 1117 1552.08 1123.75C1545.34 1130.49 1541.55 1139.64 1541.55 1149.18Z" fill="white" stroke="#495057" stroke-width="5" stroke-miterlimit="10"/>
<path d="M1686.28 1154.15V1407.4C1686.28 1426.77 1702.27 1442.48 1722.04 1442.61C1741.8 1442.49 1757.79 1426.79 1757.79 1407.4V1154.15C1757.79 1134.78 1741.8 1119.06 1722.04 1118.94C1702.27 1119.06 1686.28 1134.78 1686.28 1154.15Z" fill="#98C8DB"/>
<path d="M1697.2 1149.18V1407.98C1697.13 1412.71 1698.01 1417.41 1699.78 1421.8C1701.55 1426.19 1704.18 1430.19 1707.5 1433.56C1710.83 1436.93 1714.79 1439.6 1719.16 1441.43C1723.53 1443.25 1728.21 1444.2 1732.95 1444.2C1737.68 1444.2 1742.37 1443.25 1746.74 1441.43C1751.1 1439.6 1755.07 1436.93 1758.39 1433.56C1761.72 1430.19 1764.34 1426.19 1766.11 1421.8C1767.88 1417.41 1768.76 1412.71 1768.7 1407.98V1149.18C1768.76 1144.45 1767.88 1139.75 1766.11 1135.36C1764.34 1130.96 1761.72 1126.97 1758.39 1123.6C1755.07 1120.23 1751.1 1117.56 1746.74 1115.73C1742.37 1113.9 1737.68 1112.96 1732.95 1112.96C1728.21 1112.96 1723.53 1113.9 1719.16 1115.73C1714.79 1117.56 1710.83 1120.23 1707.5 1123.6C1704.18 1126.97 1701.55 1130.96 1699.78 1135.36C1698.01 1139.75 1697.13 1144.45 1697.2 1149.18Z" stroke="#495057" stroke-width="5" stroke-miterlimit="10"/>
<path d="M1581.24 1469.56C1576 1469.56 1571.76 1465.32 1571.76 1460.08C1571.76 1454.85 1576 1450.61 1581.24 1450.61C1586.47 1450.61 1590.71 1454.85 1590.71 1460.08C1590.71 1465.32 1586.47 1469.56 1581.24 1469.56Z" stroke="#495057" stroke-width="5" stroke-miterlimit="10" stroke-linecap="round"/>
<path d="M1696.68 1469.56C1691.44 1469.56 1687.2 1465.32 1687.2 1460.08C1687.2 1454.85 1691.44 1450.61 1696.68 1450.61C1701.91 1450.61 1706.15 1454.85 1706.15 1460.08C1706.15 1465.32 1701.91 1469.56 1696.68 1469.56Z" stroke="#495057" stroke-width="5" stroke-miterlimit="10" stroke-linecap="round"/>
<path d="M1616.04 991.342H1687V1113.21H1616.04V991.342Z" stroke="#495057" stroke-width="5" stroke-miterlimit="10" stroke-linecap="round"/>
<path d="M1606.72 988.472H1697.44V994.188H1606.72V988.472Z" fill="#495057"/>
<path d="M1661.01 1154.15V1407.4" stroke="#495057" stroke-width="5" stroke-miterlimit="10" stroke-linecap="round"/>
<path d="M1631.72 1154.15V1407.4" stroke="#495057" stroke-width="5" stroke-miterlimit="10" stroke-linecap="round"/>
<path d="M1602.43 1154.15V1407.4" stroke="#495057" stroke-width="5" stroke-miterlimit="10" stroke-linecap="round"/>
<path d="M1573.14 1154.15V1407.4" stroke="#495057" stroke-width="5" stroke-miterlimit="10" stroke-linecap="round"/>
<path d="M1562.71 1177.43H1613.02V1204.3H1562.71V1177.43Z" fill="#F5BBBB"/>
<path d="M1618.35 1234.84L1655.03 1246.8L1643.07 1283.48L1606.4 1271.52L1618.35 1234.84Z" fill="#4DABF7"/>
<path d="M1582.91 1319.4H1616.04V1341.5H1582.91V1319.4Z" fill="#98C8DB"/>
<path d="M1596.8 633.006H1635.48C1640.3 633.006 1644.2 636.912 1644.2 641.73V719.936C1644.2 724.754 1640.3 728.66 1635.48 728.66H1596.8C1591.98 728.66 1588.08 724.754 1588.08 719.936V641.73C1588.08 636.912 1591.98 633.006 1596.8 633.006Z" fill="#98C8DB"/>
<path d="M1595.02 743.465L1630.75 750.769C1635.55 744.044 1640.89 737.718 1646.71 731.853C1659.53 718.773 1673.28 709.177 1682.84 705.824L1675.85 676.316C1675.09 673.141 1673.32 670.3 1670.8 668.229C1668.28 666.157 1665.15 664.969 1661.89 664.847L1644.19 664.203C1644.19 665.931 1643.84 667.641 1643.17 669.234C1642.5 670.827 1641.52 672.27 1640.29 673.479C1639.05 674.688 1637.59 675.639 1635.98 676.275C1634.38 676.912 1632.66 677.222 1630.93 677.187L1600.79 676.591C1597.4 676.522 1594.16 675.125 1591.78 672.7C1589.41 670.275 1588.07 667.015 1588.07 663.618V658.361C1585.94 658.472 1583.93 659.374 1582.44 660.89C1580.94 662.405 1580.06 664.425 1579.98 666.554L1577.82 719.548C1577.6 724.885 1579.17 730.142 1582.29 734.478C1585.41 738.813 1589.89 741.978 1595.02 743.465Z" fill="#1864AB"/>
<path d="M1580.78 678.082C1580.33 689.068 1593.01 693.37 1605.4 694.79" stroke="#495057" stroke-width="5" stroke-miterlimit="10" stroke-linecap="round"/>
<path d="M1580.28 693.985C1579.84 704.976 1592.51 709.273 1604.9 710.693" stroke="#495057" stroke-width="5" stroke-miterlimit="10" stroke-linecap="round"/>
<path d="M1578.95 709.5C1578.5 720.485 1591.18 724.197 1603.57 725.611" stroke="#495057" stroke-width="5" stroke-miterlimit="10" stroke-linecap="round"/>
<path d="M1598.7 647.208C1596.9 647.208 1595.44 645.749 1595.44 643.95C1595.44 642.151 1596.9 640.692 1598.7 640.692C1600.5 640.692 1601.96 642.151 1601.96 643.95C1601.96 645.749 1600.5 647.208 1598.7 647.208Z" stroke="#495057" stroke-width="4" stroke-miterlimit="10" stroke-linecap="round"/>
<path d="M2116.13 1013.29L1989.62 1047.14L2115.84 1396.39H2249.42L2116.13 1013.29Z" fill="#1864AB"/>
<path d="M2116.13 1013.29L1989.62 1047.14L2001.83 1080.92L2127.91 1047.14L2116.13 1013.29Z" fill="#495057"/>
<path d="M1836.72 1396.39H1965.24L1977.49 1047.14H1859.23L1836.72 1396.39Z" fill="#1864AB"/>
<path d="M1858.65 1056.05L1976.06 1087.83H1976.06L1977.49 1047.14H1859.23L1858.65 1056.05Z" fill="#495057"/>
<path d="M2112.04 1447.07C2110.04 1447.85 2108.31 1449.22 2107.09 1451C2105.87 1452.78 2105.22 1454.88 2105.22 1457.03V1469.57H2246.33C2249.44 1469.56 2252.49 1468.82 2255.25 1467.4C2258.01 1465.97 2260.39 1463.91 2262.18 1461.38C2263.98 1458.85 2265.15 1455.93 2265.59 1452.86C2266.02 1449.78 2265.72 1446.65 2264.7 1443.72L2248.11 1395.98L2117.31 1396.58L2123.61 1414.97C2125.68 1420.83 2125.66 1427.23 2123.56 1433.08C2121.45 1438.93 2117.38 1443.87 2112.04 1447.06V1447.07Z" fill="white" stroke="#495057" stroke-width="5" stroke-miterlimit="10"/>
<path d="M2105.21 1469.56H2246.33C2249.44 1469.56 2252.49 1468.81 2255.25 1467.39C2258.01 1465.97 2260.39 1463.9 2262.18 1461.38C2263.98 1458.85 2265.15 1455.92 2265.59 1452.85C2266.02 1449.78 2265.72 1446.65 2264.7 1443.72L2261.25 1433.79C2261.83 1436.62 2261.77 1439.54 2261.07 1442.34C2260.38 1445.14 2259.08 1447.75 2257.25 1449.98C2255.43 1452.22 2253.13 1454.02 2250.52 1455.25C2247.92 1456.49 2245.07 1457.13 2242.19 1457.14H2105.22L2105.21 1469.56Z" fill="#4DABF7" stroke="#495057" stroke-width="5" stroke-miterlimit="10"/>
<path d="M2162.16 1396.39L2165.06 1406.47C2165.73 1408.79 2165.85 1411.24 2165.41 1413.62C2164.97 1415.99 2163.99 1418.24 2162.54 1420.17C2161.08 1422.1 2159.2 1423.67 2157.04 1424.75C2154.87 1425.83 2152.49 1426.39 2150.07 1426.39H2126.8L2117.3 1396.62L2162.16 1396.39Z" fill="#4DABF7" stroke="#495057" stroke-width="5" stroke-miterlimit="10"/>
<path d="M2170.46 1396.39L2173.97 1408.57C2174.79 1411.38 2174.94 1414.35 2174.41 1417.23C2173.88 1420.12 2172.69 1422.84 2170.92 1425.18C2169.16 1427.52 2166.88 1429.43 2164.26 1430.73C2161.64 1432.04 2158.74 1432.72 2155.81 1432.72H2123.5" stroke="#495057" stroke-width="5" stroke-miterlimit="10"/>
<path d="M1810.12 1469.56H1941.09C1946.89 1469.56 1952.45 1467.31 1956.62 1463.29C1960.79 1459.27 1963.23 1453.78 1963.43 1447.99L1964.03 1396.05L1963.86 1396.01H1837.89L1835.13 1423.31C1834.67 1427.82 1833.05 1432.13 1830.42 1435.82C1827.79 1439.51 1824.25 1442.45 1820.14 1444.36C1817.26 1445.7 1814.81 1447.81 1813.07 1450.47C1811.34 1453.13 1810.38 1456.23 1810.32 1459.4L1810.12 1469.56Z" fill="white" stroke="#495057" stroke-width="5" stroke-miterlimit="10"/>
<path d="M1810.12 1469.56H1941.09C1946.89 1469.56 1952.45 1467.31 1956.62 1463.29C1960.79 1459.27 1963.23 1453.78 1963.43 1447.99L1963.57 1435.77H1963.42C1963.16 1441.52 1960.7 1446.95 1956.54 1450.93C1952.38 1454.91 1946.85 1457.13 1941.09 1457.14H1810.51C1810.39 1457.89 1810.32 1458.64 1810.31 1459.4L1810.12 1469.56Z" fill="#4DABF7" stroke="#495057" stroke-width="5" stroke-miterlimit="10"/>
<path d="M1834.63 1426.37H1848.44C1853.52 1426.37 1858.4 1424.36 1861.99 1420.76C1865.58 1417.17 1867.6 1412.29 1867.6 1407.21V1396.01H1837.89L1835.13 1423.31C1835.03 1424.34 1834.86 1425.36 1834.63 1426.37Z" fill="#4DABF7" stroke="#495057" stroke-width="5" stroke-miterlimit="10"/>
<path d="M1832.27 1432.72H1852.16C1857.92 1432.72 1863.45 1430.44 1867.52 1426.36C1871.59 1422.29 1873.88 1416.76 1873.88 1411V1396.03" stroke="#495057" stroke-width="5" stroke-miterlimit="10"/>
<path d="M1845.61 1047.14H1977.49L1978.56 1016.52L1989.62 1047.14L2116.12 1013.29L2049.79 822.697C2011.5 846.262 1873.67 822.697 1873.67 822.697H1871.88L1845.61 1047.14Z" fill="#F5BBBB"/>
<path d="M1864.23 888.36V1047.11H1867.78V858.053L1864.23 888.36Z" fill="white"/>
<path d="M1883.06 824.183V1047.11H1886.61V824.708L1883.06 824.183Z" fill="white"/>
<path d="M1901.9 826.821V1047.11H1905.48V827.274L1901.9 826.821Z" fill="white"/>
<path d="M1920.75 829.07V1047.11H1924.29V829.44L1920.75 829.07Z" fill="white"/>
<path d="M1939.58 830.902V1047.11H1943.17V831.23C1941.95 831.123 1940.76 831.013 1939.58 830.902Z" fill="white"/>
<path d="M1958.42 832.269V1047.09H1962V832.448C1960.8 832.424 1959.61 832.34 1958.42 832.269Z" fill="white"/>
<path d="M1977.27 833.05V1012.96L1980.82 1022.78V833.122L1977.27 833.05Z" fill="white"/>
<path d="M1996.09 833.062V1045.41L1999.67 1044.44V832.949C1998.47 833.021 1997.28 833.021 1996.09 833.062Z" fill="white"/>
<path d="M2014.95 831.941V1040.36L2018.5 1039.41V831.553C2017.33 831.696 2016.15 831.825 2014.95 831.941Z" fill="white"/>
<path d="M2033.79 828.885V1035.31L2037.34 1034.37V827.942C2036.19 828.247 2035 828.587 2033.79 828.885Z" fill="white"/>
<path d="M2052.62 830.765V1030.28L2056.17 1029.32V840.975L2052.62 830.765Z" fill="white"/>
<path d="M2071.47 884.923V1025.24L2075.02 1024.28V895.133L2071.47 884.923Z" fill="white"/>
<path d="M2090.31 939.07V1020.19L2093.86 1019.24V949.279L2090.31 939.07Z" fill="white"/>
<path d="M1871.33 827.65C1992.16 860.13 2061.44 856.979 2061.44 856.979L2049.79 822.697C2011.5 846.262 1873.67 822.697 1873.67 822.697H1871.88L1871.33 827.65Z" fill="#495057"/>
<path d="M1975.71 1047.14L1983.25 908.714L2009.18 886.916" stroke="#495057" stroke-width="6" stroke-miterlimit="10"/>
<path d="M1901.9 910.314L1926.98 922.743L1952.04 910.314V866.884H1901.9V910.314Z" fill="#F5BBBB" stroke="#592D29" stroke-width="6" stroke-linejoin="round"/>
<path d="M2029.74 910.314L2054.81 922.743L2079.88 910.314L2064.49 866.884H2029.74V910.314Z" fill="#F5BBBB" stroke="#592D29" stroke-width="6" stroke-linejoin="round"/>
<path d="M1622.72 776.171C1622.8 776.278 1622.9 776.38 1623 776.481L1703.26 864.128C1714.63 876.535 1729.25 885.502 1745.46 890.007C1761.66 894.513 1778.81 894.376 1794.95 889.613C1811.08 884.849 1825.56 875.65 1836.72 863.063C1847.88 850.477 1855.29 835.008 1858.09 818.419L1873.7 726.082V822.703C1873.7 822.703 2011.54 846.268 2049.82 822.703L2104.4 978.817C2104.4 978.831 2104.4 978.845 2104.4 978.859C2107.28 986.336 2131.19 985.13 2157.94 974.98C2184.69 964.83 2204.84 950.932 2202.1 943.426C2202.1 943.412 2202.1 943.398 2202.1 943.384C2202.1 943.362 2202.1 943.34 2202.1 943.318L2095.07 662.359C2089.27 647.137 2078.98 634.038 2065.56 624.797C2052.15 615.557 2036.24 610.612 2019.96 610.617H1859.44C1841.11 610.617 1823.33 616.884 1809.06 628.376C1794.78 639.869 1784.86 655.898 1780.94 673.804L1758.82 769.064L1693.62 705.961C1687.78 700.221 1666.17 711.994 1646.71 731.853C1627.55 751.371 1617.5 770.091 1622.72 776.171Z" fill="white" stroke="#495057" stroke-width="5" stroke-miterlimit="10"/>
<path d="M2104.4 978.817C2104.4 978.831 2104.4 978.845 2104.4 978.859C2107.28 986.336 2131.19 985.13 2157.94 974.98C2184.69 964.83 2204.84 950.932 2202.1 943.425C2202.1 943.412 2202.1 943.397 2202.1 943.384C2202.1 943.362 2202.1 943.34 2202.1 943.318C2199.12 935.901 2174.41 937.721 2147.7 947.847C2121 957.974 2101.64 971.316 2104.4 978.817Z" fill="white" stroke="#495057" stroke-width="5" stroke-miterlimit="10"/>
<path d="M2292.15 1050.99L2334.23 1172.02C2341.63 1193.32 2330.37 1216.58 2309.07 1223.99L2241.72 1247.4C2220.43 1254.81 2197.16 1243.54 2189.76 1222.24L2147.68 1101.22C2140.28 1079.92 2151.54 1056.66 2172.84 1049.25L2240.19 1025.84C2261.48 1018.43 2284.75 1029.7 2292.15 1050.99Z" stroke="#495057" stroke-width="5" stroke-miterlimit="10" stroke-linecap="round"/>
<path d="M2158.59 1132.61L2189.76 1222.26C2191.52 1227.32 2194.26 1231.99 2197.83 1236C2201.39 1240 2205.71 1243.27 2210.53 1245.6C2215.36 1247.94 2220.6 1249.3 2225.95 1249.61C2231.3 1249.92 2236.66 1249.17 2241.73 1247.41L2309.08 1224C2319.3 1220.44 2327.7 1212.97 2332.42 1203.22C2337.13 1193.48 2337.79 1182.26 2334.23 1172.03L2303.07 1082.38C2298.73 1069.91 2289.62 1059.67 2277.74 1053.92C2265.86 1048.17 2252.17 1047.37 2239.7 1051.7L2189.26 1069.24C2183.08 1071.39 2177.39 1074.73 2172.51 1079.08C2167.63 1083.42 2163.65 1088.69 2160.8 1094.57C2157.95 1100.46 2156.29 1106.85 2155.91 1113.37C2155.54 1119.9 2156.45 1126.44 2158.59 1132.61Z" stroke="#495057" stroke-width="5" stroke-miterlimit="10" stroke-linecap="round"/>
<path d="M2273.7 1130.03L2211.49 1151.66C2209.55 1152.34 2207.95 1153.76 2207.06 1155.61C2206.16 1157.46 2206.04 1159.59 2206.71 1161.54L2209.75 1170.27L2286.61 1143.55L2283.57 1134.81C2282.9 1132.87 2281.48 1131.28 2279.63 1130.38C2277.77 1129.48 2275.64 1129.36 2273.7 1130.03Z" stroke="#495057" stroke-width="5" stroke-miterlimit="10" stroke-linecap="round"/>
<path d="M2278.91 1152.43L2207.33 1177.31L2217.49 1206.53C2218.46 1209.34 2220.51 1211.64 2223.18 1212.93C2225.85 1214.22 2228.93 1214.4 2231.74 1213.43L2282.17 1195.9C2284.97 1194.92 2287.27 1192.87 2288.57 1190.2C2289.86 1187.53 2290.04 1184.45 2289.07 1181.65L2278.9 1152.42L2278.91 1152.43Z" fill="#98C8DB"/>
<path d="M2283.96 1144.49L2212.38 1169.37L2222.54 1198.6C2223.52 1201.41 2225.57 1203.71 2228.24 1205C2230.91 1206.3 2233.99 1206.48 2236.79 1205.5L2287.23 1187.97C2290.03 1186.99 2292.33 1184.94 2293.63 1182.27C2294.92 1179.6 2295.1 1176.52 2294.12 1173.72L2283.96 1144.49Z" stroke="#495057" stroke-width="5" stroke-miterlimit="10" stroke-linecap="round"/>
<path d="M2147.14 997.99L2164.49 1052.49L2234.1 1027.78L2223.56 994.66L2147.14 997.99Z" stroke="#495057" stroke-width="5" stroke-miterlimit="10" stroke-linecap="round"/>
<path d="M2115.76 965.57L2117.15 969.377L2122.32 983.537L2133.33 1013.75C2134.49 1017.04 2136.64 1019.88 2139.48 1021.9C2142.33 1023.91 2145.73 1024.99 2149.21 1024.99H2213.77C2216.47 1024.99 2219.13 1024.34 2221.53 1023.09C2223.93 1021.85 2225.99 1020.04 2227.55 1017.84C2229.1 1015.63 2230.1 1013.08 2230.46 1010.4C2230.82 1007.72 2230.54 1005 2229.63 1002.45L2221.79 980.512C2220.93 978.118 2219.36 976.048 2217.28 974.585C2215.2 973.121 2212.72 972.336 2210.17 972.337H2196.87L2191.91 957.639L2191.23 955.616L2186.2 940.698C2176.14 941.295 2162.19 944.344 2148.26 949.649C2135.33 954.542 2123.57 960.193 2115.76 965.57Z" fill="#1864AB"/>
<path d="M2201.52 1022.78C2204.1 1022.78 2206.65 1022.16 2208.94 1020.97C2211.24 1019.78 2213.21 1018.05 2214.7 1015.94C2216.18 1013.83 2217.14 1011.39 2217.49 1008.83C2217.83 1006.27 2217.56 1003.66 2216.69 1001.23L2209.76 981.938C2208.94 979.65 2207.43 977.671 2205.44 976.273C2203.45 974.875 2201.08 974.125 2198.65 974.127H2151.17C2150.25 974.127 2149.35 974.347 2148.53 974.769C2147.72 975.191 2147.01 975.803 2146.48 976.553C2145.95 977.304 2145.61 978.17 2145.48 979.08C2145.36 979.99 2145.45 980.917 2145.76 981.783L2151.86 1000.28L2147.14 1000.12" stroke="#495057" stroke-width="5" stroke-miterlimit="10" stroke-linecap="round"/>
<path d="M2179.78 1022.78C2182.36 1022.78 2184.9 1022.15 2187.2 1020.96C2189.49 1019.77 2191.46 1018.05 2192.95 1015.94C2194.44 1013.83 2195.39 1011.39 2195.74 1008.83C2196.08 1006.27 2195.81 1003.66 2194.94 1001.23L2188.02 981.938C2187.2 979.645 2185.69 977.662 2183.69 976.262C2181.7 974.861 2179.32 974.111 2176.89 974.115" stroke="#495057" stroke-width="5" stroke-miterlimit="10" stroke-linecap="round"/>
<path d="M2155.62 1023.97C2166.78 1023.97 2176.95 1011.71 2173.2 1001.22L2166.27 981.926C2165.45 979.638 2163.94 977.659 2161.95 976.261C2159.96 974.863 2157.59 974.113 2155.16 974.115" stroke="#495057" stroke-width="5" stroke-miterlimit="10" stroke-linecap="round"/>
<path d="M2191.41 956.13L2186.18 940.084C2176.08 940.633 2162.45 943.664 2148.26 949.035C2135.05 954.047 2123.4 959.776 2115.59 965.23L2116.87 968.643L2191.41 956.13Z" fill="#495057"/>
<path d="M1896.53 580.244V611.799C1896.53 611.799 1925.5 622.009 1945.4 611.799L1922.94 571.061L1921.15 567.821C1920.9 568.119 1912.55 577.911 1896.53 580.244Z" fill="#1864AB"/>
<path d="M1921.15 567.809C1921.15 567.809 1912.79 577.875 1896.53 580.244V602.92L1922.97 571.013L1921.15 567.809Z" fill="#495057"/>
<path d="M2049.83 820.334L2236 686.025C2236 686.025 2238.46 609.847 2158.63 598.832C2121.71 593.724 2108.77 612.389 2079.32 608.069C2049.4 603.683 2061.74 557.754 2017.66 547.801C1988.17 541.129 1979.64 562.301 1958.33 552.121C1943.8 545.187 1935.55 519.534 1908.84 519.534C1889.01 519.534 1886.07 535.049 1886.07 535.049C1886.07 535.049 1894.57 545.402 1921.15 546.41V566.627C1921.15 566.627 1921.15 601.141 1951.31 614.758C1973.29 624.676 1962.28 640.537 1954.99 671.101C1945.4 711.355 1981.76 740.81 2017.24 748.674C2052.43 756.491 2060.41 791.25 2049.83 820.334Z" fill="#4DABF7"/>
<path d="M1917.92 546.243C1894.25 544.596 1886.29 535.329 1886.05 535.031L1877.59 555.546C1877.4 556.016 1877.31 556.522 1877.32 557.031C1877.33 557.539 1877.46 558.039 1877.68 558.497C1877.9 558.956 1878.21 559.363 1878.6 559.692C1878.98 560.022 1879.44 560.266 1879.93 560.409L1882.03 561.006L1880.84 568.608C1880.53 570.605 1880.89 572.648 1881.86 574.42C1882.83 576.192 1884.36 577.594 1886.21 578.406C1889.78 580.031 1893.74 580.624 1897.63 580.119C1913.88 577.732 1921.13 567.809 1921.13 567.809H1924.18C1927.03 567.809 1929.76 566.677 1931.78 564.663C1933.79 562.648 1934.92 559.916 1934.92 557.068C1934.92 554.219 1933.79 551.487 1931.78 549.473C1929.76 547.458 1927.03 546.327 1924.18 546.327L1917.92 546.243Z" fill="#1864AB"/>
<path d="M1925.56 552.258C1923.76 552.258 1922.02 552.975 1920.75 554.252C1919.47 555.529 1918.75 557.261 1918.75 559.067" stroke="#495057" stroke-width="5" stroke-miterlimit="10" stroke-linecap="round"/>
<path d="M1900.5 548.738C1900.5 548.738 1896.13 545.497 1891.23 545.414" stroke="#4DABF7" stroke-width="4" stroke-miterlimit="10" stroke-linecap="round"/>
<path d="M1893.64 556.728C1892.72 556.728 1891.97 555.402 1891.97 553.768C1891.97 552.133 1892.72 550.808 1893.64 550.808C1894.57 550.808 1895.31 552.133 1895.31 553.768C1895.31 555.402 1894.57 556.728 1893.64 556.728Z" fill="#495057"/>
</g>
<defs>
<clipPath id="clip0_209_5519">
<rect width="2338" height="1496" fill="white" transform="matrix(-1 0 0 1 2338 0)"/>
</clipPath>
</defs>
</svg>
